<svg version="1.1" id="Layer_1" xmlns="http://www.w3.org/2000/svg" xmlns:xlink="http://www.w3.org/1999/xlink" x="0px" y="0px"
	 width="100%" viewBox="0 0 2700 800" enable-background="new 0 0 2700 800" xml:space="preserve">
<path fill="#010101" opacity="1.000000" stroke="none" 
	d="
M1806.000000,801.000000 
	C1204.000000,801.000000 602.500000,801.000000 1.000000,801.000000 
	C1.000000,534.333313 1.000000,267.666656 1.000000,1.000000 
	C901.000000,1.000000 1801.000000,1.000000 2701.000000,1.000000 
	C2701.000000,267.666656 2701.000000,534.333313 2701.000000,801.000000 
	C2402.833252,801.000000 2104.666748,801.000000 1806.000000,801.000000 
M285.087158,663.261963 
	C279.872070,649.053589 274.457062,634.914673 269.492310,620.619324 
	C263.222900,602.567444 257.274811,584.403137 251.269012,566.260559 
	C237.117081,523.509949 222.916397,480.774994 208.948288,437.964264 
	C204.720276,425.005859 201.157364,411.829285 197.349106,398.735382 
	C193.542755,385.648132 189.394775,372.640991 186.160904,359.411865 
	C182.806229,345.688629 180.610764,331.685852 177.461609,317.907440 
	C174.274734,303.964050 170.178116,290.225067 167.121674,276.256165 
	C160.648300,246.671051 154.415756,217.030228 148.426071,187.343338 
	C144.248306,166.636902 140.560196,145.830017 136.806580,125.040344 
	C134.885025,114.397484 133.520447,103.651314 131.471786,93.035271 
	C130.411362,87.540169 128.318481,86.808571 123.881454,89.854073 
	C104.991409,102.819870 85.559814,115.103409 67.512085,129.159058 
	C50.128719,142.697296 34.195202,158.098495 17.646683,172.706100 
	C14.674292,175.329865 14.874677,177.541199 18.360765,179.796616 
	C24.363800,183.680466 30.300116,187.694244 36.029903,191.967911 
	C47.303455,200.376541 58.476513,208.923737 69.551285,217.592285 
	C72.175011,219.645966 74.916679,222.546234 71.487450,225.941727 
	C66.550354,230.830246 61.431431,235.582047 56.027470,239.942810 
	C43.112553,250.364609 29.900446,260.419434 17.050825,270.919189 
	C15.422759,272.249512 14.163977,275.596313 14.607680,277.592407 
	C15.755075,282.754272 17.515810,287.890564 19.797720,292.671448 
	C34.248306,322.946991 48.907104,353.123108 63.496048,383.332642 
	C64.363724,385.129333 65.160355,386.963226 66.093666,388.724884 
	C73.786720,403.245636 81.307877,417.862183 89.267570,432.235657 
	C97.867325,447.764954 107.959831,462.561584 115.437248,478.593811 
	C124.150276,497.275299 138.159515,512.966187 144.826340,532.673767 
	C145.290359,534.045471 146.359070,535.231812 147.231827,536.442993 
	C156.531967,549.349121 165.510788,562.380066 173.200516,576.420959 
	C182.191284,592.837585 192.696426,608.440063 202.843842,624.203064 
	C210.377914,635.906555 218.155487,647.469971 226.248352,658.792908 
	C235.891449,672.284912 246.110153,685.364502 255.821625,698.809021 
	C259.312744,703.642090 261.651367,709.319885 265.230438,714.074341 
	C271.089050,721.856750 277.510712,729.216919 283.733337,736.723267 
	C296.636047,752.287720 309.458099,767.921326 322.558167,783.318176 
	C325.724518,787.039673 329.843903,789.950378 333.525024,793.233887 
	C333.930603,792.883179 334.336212,792.532471 334.741791,792.181763 
	C334.207611,790.308838 333.884674,788.342529 333.105316,786.577942 
	C327.670258,774.271973 321.600952,762.215698 316.770569,749.680359 
	C309.896118,731.840088 304.009888,713.621338 297.505157,695.635315 
	C293.663513,685.012939 289.443054,674.527588 285.087158,663.261963 
M1819.536987,487.123657 
	C1821.364624,493.301239 1823.692261,499.381165 1824.921143,505.675629 
	C1827.926758,521.071777 1825.117554,535.403259 1815.794189,548.270325 
	C1810.004395,556.260925 1801.576294,560.576721 1793.106689,564.892090 
	C1780.912720,571.105164 1768.177856,575.124329 1754.316772,574.291138 
	C1752.029175,574.153625 1749.800049,573.044067 1746.241211,572.002502 
	C1748.359253,570.641174 1748.839844,570.139587 1749.411499,569.993469 
	C1759.069336,567.523438 1766.462280,561.695190 1772.019897,553.752625 
	C1783.229492,537.732788 1781.536987,516.975586 1763.088379,505.754791 
	C1747.432861,496.232819 1727.567383,498.165802 1711.927856,510.618866 
	C1698.745483,521.115479 1693.820312,536.819031 1699.370117,551.520020 
	C1702.450073,559.678589 1708.267334,565.845154 1715.028809,571.119446 
	C1730.054199,582.839539 1747.223633,587.390503 1766.019287,585.487671 
	C1781.518066,583.918640 1795.692871,578.182800 1808.753174,569.884460 
	C1829.568359,556.658936 1842.386475,538.419312 1842.492676,512.954346 
	C1842.570557,494.245270 1835.167358,478.114410 1824.487549,463.144836 
	C1815.524902,450.582031 1806.950073,437.742493 1798.207886,425.022430 
	C1796.437988,422.447235 1796.545898,420.488831 1799.231079,418.230347 
	C1811.652832,407.781921 1819.710693,394.288483 1824.916626,379.133057 
	C1830.628174,362.505707 1832.375977,345.475372 1828.894409,328.029755 
	C1826.603638,316.550598 1822.342163,305.838898 1814.892700,296.960175 
	C1799.161011,278.210114 1777.441406,271.011566 1754.136841,268.428619 
	C1736.508545,266.474823 1719.255127,269.217590 1703.181274,277.310944 
	C1699.372559,279.228638 1697.127930,278.084686 1695.044312,274.595123 
	C1692.411865,270.186584 1689.266602,266.085236 1686.361938,261.838135 
	C1679.337158,251.567429 1672.238281,241.345062 1665.409790,230.945267 
	C1664.519287,229.589264 1664.434448,227.083572 1665.016113,225.489822 
	C1667.407227,218.937332 1670.078857,212.478592 1672.867310,206.081223 
	C1683.051758,182.714401 1689.611938,158.311066 1691.417725,132.960602 
	C1693.427979,104.743591 1690.131348,77.257095 1676.334717,51.712204 
	C1667.692017,35.710068 1656.603760,22.322592 1640.693848,13.148300 
	C1620.449707,1.474702 1598.603882,7.674541 1587.590454,28.276424 
	C1580.952515,40.693623 1578.554932,54.122723 1576.789551,67.941071 
	C1573.174805,96.235352 1580.106445,122.344627 1593.273438,146.762054 
	C1602.000244,162.945602 1612.851929,177.997055 1623.017578,193.380127 
	C1625.240845,196.744461 1624.974609,199.017227 1622.893921,202.267227 
	C1605.934082,228.758301 1589.691406,255.645309 1578.571289,285.270111 
	C1568.831665,311.216888 1564.730713,337.837433 1569.464600,365.352203 
	C1574.356689,393.786469 1589.764282,415.596252 1613.314697,431.683746 
	C1634.296265,446.016479 1658.089233,452.884247 1683.113770,454.550629 
	C1717.033081,456.809326 1749.372925,450.560577 1778.950684,432.916565 
	C1781.970947,431.114899 1784.088989,431.368958 1786.060059,434.407288 
	C1789.492554,439.698425 1793.263062,444.772369 1796.640747,450.096619 
	C1804.282959,462.143066 1811.772339,474.286560 1819.536987,487.123657 
M2498.162109,402.499939 
	C2498.162109,422.258057 2498.162109,442.016174 2498.162109,461.688721 
	C2509.544434,461.688721 2520.293457,461.688721 2531.335449,461.688721 
	C2531.335449,430.265259 2531.335449,399.153320 2531.335449,367.792786 
	C2567.660645,367.792786 2603.684814,367.792786 2640.106445,367.792786 
	C2640.106445,509.954803 2640.106445,651.833313 2640.106445,793.747925 
	C2651.242432,793.747925 2661.979248,793.747925 2673.073486,793.747925 
	C2673.073486,651.598938 2673.073486,509.702484 2673.073486,367.295227 
	C2679.501709,367.295227 2685.578369,367.295227 2691.494629,367.295227 
	C2691.494629,356.200500 2691.494629,345.620422 2691.494629,334.679230 
	C2685.215332,334.679230 2679.276855,334.679230 2672.973877,334.679230 
	C2672.973877,268.584259 2672.973877,202.859390 2672.973877,137.159500 
	C2672.273926,137.097809 2671.907471,136.953659 2671.635254,137.057312 
	C2632.498047,151.958527 2596.934082,172.286209 2567.841553,203.159576 
	C2534.481201,238.561951 2512.754395,279.792511 2502.953125,327.400269 
	C2497.911133,351.890778 2498.104736,376.693512 2498.162109,402.499939 
M677.943115,351.409180 
	C698.092773,287.584106 685.307190,230.817429 638.957703,182.948853 
	C600.764587,143.503876 553.052307,127.507637 498.557739,135.386078 
	C455.181274,141.657150 419.846008,163.212875 393.094330,197.852707 
	C364.096283,235.401276 353.091644,277.995544 360.848328,324.973145 
	C366.908966,361.678894 383.732880,393.059082 411.399231,417.759369 
	C460.827087,461.888031 517.696106,474.032074 580.104675,451.240479 
	C627.690918,433.861969 659.675049,399.466705 677.943115,351.409180 
M273.859528,48.596661 
	C269.378876,50.014664 265.451569,49.013897 261.600616,46.368591 
	C256.683655,42.991032 251.704147,39.610508 246.413513,36.888351 
	C229.740051,28.309460 211.449921,25.284294 193.232803,22.216858 
	C183.293930,20.543327 179.944061,22.873104 177.584198,32.629440 
	C173.502701,49.503632 169.883392,66.565094 172.295532,83.981499 
	C173.721664,94.278702 176.485550,104.460625 179.478287,114.445473 
	C181.372726,120.765945 184.114517,121.583427 190.629074,120.366409 
	C197.503220,119.082207 204.405167,117.946945 211.279861,116.665573 
	C229.689957,113.234138 247.375076,107.958511 262.770721,96.685356 
	C264.311371,95.557228 266.531952,95.357658 269.075073,94.515961 
	C269.075073,217.898773 269.075073,340.289368 269.075073,462.769226 
	C280.872131,462.769226 292.275482,462.769226 304.068787,462.769226 
	C304.068787,339.972687 304.068787,217.409943 304.068787,93.220398 
	C307.850372,94.919617 310.787842,96.034584 313.513153,97.535011 
	C315.381683,98.563728 316.796509,100.437523 318.684631,101.406509 
	C339.835785,112.261292 362.301849,118.530579 386.006134,120.288017 
	C391.101959,120.665817 394.756744,118.569817 396.049438,113.322556 
	C397.559357,107.193558 399.263947,101.098625 400.446503,94.905365 
	C404.811890,72.042633 402.924255,49.499523 396.399506,27.279871 
	C394.959259,22.375166 390.699097,19.861694 385.658539,20.605051 
	C382.530243,21.066395 379.454132,21.987009 376.316162,22.259914 
	C355.267700,24.090490 336.233978,31.958338 318.277435,42.391159 
	C311.138794,46.538731 304.840729,51.148190 296.315979,46.673321 
	C295.634186,46.315426 294.663635,46.347237 293.849701,46.426929 
	C287.464111,47.052143 281.084015,47.733253 273.859528,48.596661 
M1068.172852,232.500076 
	C1068.172852,200.719086 1068.172852,168.938095 1068.172852,136.603745 
	C1064.885498,137.924286 1062.169678,139.062180 1059.420532,140.112595 
	C1017.441895,156.151703 981.210754,180.460724 952.321228,215.118637 
	C917.509460,256.881165 897.117371,304.831238 894.321289,359.214691 
	C892.603821,392.620087 893.670837,426.168701 893.499878,459.653076 
	C893.496582,460.294189 893.646545,460.936096 893.749817,461.780640 
	C904.630371,461.780640 915.365173,461.780640 926.643799,461.780640 
	C926.643799,430.341736 926.643799,399.114746 926.643799,367.813721 
	C963.069824,367.813721 998.951416,367.813721 1035.319946,367.813721 
	C1035.319946,399.338196 1035.319946,430.567413 1035.319946,461.682709 
	C1046.562012,461.682709 1057.313232,461.682709 1068.355713,461.682709 
	C1068.355713,430.245117 1068.355713,399.128265 1068.355713,367.433777 
	C1074.702148,367.433777 1080.760010,367.433777 1086.730469,367.433777 
	C1086.730469,356.250916 1086.730469,345.650940 1086.730469,334.692566 
	C1080.530640,334.692566 1074.597290,334.692566 1068.172852,334.692566 
	C1068.172852,300.720612 1068.172852,267.110352 1068.172852,232.500076 
M1234.533325,462.002991 
	C1242.294312,462.002991 1250.055176,462.002991 1258.178955,462.002991 
	C1258.178955,430.161346 1258.178955,398.911621 1258.178955,367.774719 
	C1294.491943,367.774719 1330.426880,367.774719 1366.845703,367.774719 
	C1366.845703,399.249298 1366.845703,430.466675 1366.845703,461.712616 
	C1378.064453,461.712616 1388.795288,461.712616 1399.977539,461.712616 
	C1399.977539,430.189819 1399.977539,398.954346 1399.977539,367.276917 
	C1406.349609,367.276917 1412.268555,367.276917 1418.203003,367.276917 
	C1418.203003,356.254852 1418.203003,345.683411 1418.203003,334.672821 
	C1411.970947,334.672821 1406.042358,334.672821 1399.697754,334.672821 
	C1399.697754,268.537415 1399.697754,202.845261 1399.697754,136.532272 
	C1395.782959,138.161972 1392.482056,139.630432 1389.113892,140.924149 
	C1339.590454,159.946350 1299.188599,190.723419 1269.053345,234.538895 
	C1241.612915,274.436066 1226.584473,318.644684 1225.297363,367.090454 
	C1224.501221,397.055695 1225.051270,427.056732 1224.997559,457.041687 
	C1224.994751,458.634949 1224.997192,460.228210 1224.997192,462.002991 
	C1228.248291,462.002991 1230.895996,462.002991 1234.533325,462.002991 
M2252.674561,440.182861 
	C2268.036865,424.822113 2275.547607,406.288727 2275.533203,384.555634 
	C2275.479248,302.729767 2275.512695,220.903824 2275.513672,139.077927 
	C2275.513672,137.318130 2275.513916,135.558334 2275.513916,133.861664 
	C2264.260010,133.861664 2253.715088,133.861664 2242.997070,133.861664 
	C2242.997070,136.061218 2242.997070,137.888687 2242.997070,139.716171 
	C2242.997070,220.375519 2242.998535,301.034851 2242.989746,381.694214 
	C2242.989502,384.192169 2242.979492,386.696442 2242.813477,389.187073 
	C2241.094238,414.944702 2216.303711,433.581909 2191.077637,428.109344 
	C2170.596436,423.666138 2157.021729,406.021088 2157.013916,383.616028 
	C2156.986084,302.290070 2157.002930,220.964127 2157.002930,139.638168 
	C2157.002930,137.702393 2157.002930,135.766617 2157.002930,133.783386 
	C2145.709229,133.783386 2134.960938,133.783386 2124.139648,133.783386 
	C2124.082275,134.902771 2124.002930,135.729065 2124.002930,136.555359 
	C2123.997314,219.047867 2123.865723,301.540894 2124.186279,384.032166 
	C2124.221191,393.030121 2125.507568,402.501709 2128.516602,410.931610 
	C2147.366211,463.741791 2211.123291,478.884491 2252.674561,440.182861 
M2327.686523,202.185013 
	C2286.998291,258.791321 2285.774658,332.544922 2325.039062,389.680817 
	C2364.789062,447.523163 2427.198730,466.660614 2476.846924,461.310333 
	C2476.846924,419.198242 2476.846924,377.112244 2476.846924,335.097656 
	C2451.111572,335.097656 2425.701416,335.097656 2400.233643,335.097656 
	C2400.233643,345.952637 2400.233643,356.536560 2400.233643,367.563721 
	C2414.867432,367.563721 2429.272461,367.563721 2443.794434,367.563721 
	C2443.794434,387.956757 2443.794434,407.903534 2443.794434,427.872131 
	C2385.399414,421.445618 2332.726074,370.852539 2329.186523,304.030762 
	C2325.320801,231.059662 2386.667236,165.386765 2460.246582,165.719955 
	C2460.246582,155.136993 2460.246582,144.555862 2460.246582,133.217484 
	C2405.024658,135.074219 2361.223877,157.936584 2327.686523,202.185013 
M733.165283,384.338287 
	C766.182312,434.254700 812.565430,460.054718 872.840881,462.411407 
	C872.840881,456.244629 872.840881,450.953613 872.840881,445.662598 
	C872.840881,440.219849 872.840881,434.777100 872.840881,429.358093 
	C800.957642,429.025635 744.686890,370.687500 741.094727,305.717957 
	C739.233826,272.061432 748.981445,241.865036 770.294556,215.840576 
	C796.618958,183.697006 830.915039,167.032013 872.503784,165.888626 
	C872.503784,154.931015 872.503784,144.389908 872.503784,133.064896 
	C812.520020,135.617188 765.106995,160.701141 733.675903,211.377167 
	C698.595276,267.937317 699.334961,326.084045 733.165283,384.338287 
M2043.999023,294.500000 
	C2043.999023,283.403656 2043.999023,272.307281 2043.999023,260.821960 
	C2059.308350,260.821960 2074.049316,260.821960 2088.708252,260.821960 
	C2088.708252,249.683029 2088.708252,238.945007 2088.708252,227.815063 
	C2073.679932,227.815063 2058.939209,227.815063 2044.290771,227.815063 
	C2044.290771,207.012146 2044.290771,186.609009 2044.290771,165.811890 
	C2065.652100,165.811890 2086.724121,165.811890 2107.704102,165.811890 
	C2107.704102,154.673813 2107.704102,143.935638 2107.704102,133.295319 
	C2075.340332,133.295319 2043.272827,133.295319 2010.812744,133.295319 
	C2010.812744,164.991165 2010.812744,196.394531 2010.812744,228.192688 
	C2005.677734,228.192688 2000.929321,228.192688 1996.298950,228.192688 
	C1996.298950,239.333435 1996.298950,250.072159 1996.298950,261.202972 
	C2001.337646,261.202972 2006.084106,261.202972 2011.197632,261.202972 
	C2011.197632,328.331665 2011.197632,395.061707 2011.197632,461.703186 
	C2022.326294,461.703186 2033.064575,461.703186 2043.999023,461.703186 
	C2043.999023,406.105133 2043.999023,350.802551 2043.999023,294.500000 
M1138.500366,133.480682 
	C1126.379639,133.480682 1114.258911,133.480682 1102.100830,133.480682 
	C1102.100830,144.581543 1102.100830,155.153091 1102.100830,166.192261 
	C1116.937988,166.192261 1131.504395,166.192261 1146.430664,166.192261 
	C1146.430664,265.039764 1146.430664,363.416321 1146.430664,461.705261 
	C1157.388916,461.705261 1167.970581,461.705261 1178.944946,461.705261 
	C1178.944946,363.046967 1178.944946,264.688995 1178.944946,165.861877 
	C1193.904907,165.861877 1208.471924,165.861877 1223.011475,165.861877 
	C1223.011475,154.922302 1223.011475,144.454041 1223.011475,133.480743 
	C1195.066528,133.480743 1167.283569,133.480743 1138.500366,133.480682 
M1886.791504,725.828613 
	C1888.975220,732.875732 1891.158936,739.922913 1893.792114,748.420776 
	C1900.093872,728.833923 1905.960205,710.600403 1911.826538,692.366882 
	C1912.222412,692.474854 1912.618286,692.582886 1913.014160,692.690918 
	C1913.014160,717.812012 1913.014160,742.933105 1913.014160,768.255005 
	C1916.182983,768.255005 1919.095581,768.255005 1922.264282,768.255005 
	C1922.264282,721.525024 1922.264282,675.051025 1922.264282,628.577026 
	C1922.040894,628.525330 1921.817627,628.473694 1921.594238,628.421997 
	C1912.474731,657.563538 1903.355103,686.705139 1893.813965,717.194153 
	C1884.362671,686.578857 1875.386230,657.501648 1866.409790,628.424438 
	C1866.193237,628.481079 1865.976562,628.537720 1865.760010,628.594360 
	C1865.760010,675.080261 1865.760010,721.566223 1865.760010,768.262390 
	C1868.960327,768.262390 1871.876221,768.262390 1875.293579,768.262390 
	C1875.293579,742.896118 1875.293579,717.773987 1875.293579,692.651794 
	C1875.618774,692.603027 1875.943970,692.554260 1876.269165,692.505493 
	C1879.674316,703.365845 1883.079346,714.226257 1886.791504,725.828613 
M850.318054,672.056641 
	C845.811768,657.361694 841.305481,642.666748 836.799255,627.971802 
	C836.613770,628.015137 836.428345,628.058472 836.242920,628.101807 
	C836.242920,674.780701 836.242920,721.459595 836.242920,768.128540 
	C839.561768,768.128540 842.610229,768.128540 846.001831,768.128540 
	C846.001831,742.705750 846.001831,717.672119 846.001831,692.638489 
	C846.249390,692.596558 846.496887,692.554688 846.744446,692.512817 
	C852.499451,710.786072 858.254456,729.059326 864.346313,748.402222 
	C870.589294,728.896118 876.425232,710.661926 882.261108,692.427673 
	C882.621582,692.488831 882.982056,692.549988 883.342529,692.611145 
	C883.342529,717.802368 883.342529,742.993591 883.342529,768.275391 
	C886.797729,768.275391 889.732971,768.275391 892.714355,768.275391 
	C892.714355,721.396545 892.714355,674.762634 892.714355,628.128662 
	C892.538086,628.104248 892.361816,628.079834 892.185547,628.055420 
	C883.038086,657.322876 873.890625,686.590332 864.321289,717.207642 
	C859.513306,701.579285 855.084167,687.182495 850.318054,672.056641 
M1561.485229,670.897522 
	C1556.809326,685.801636 1552.133545,700.705688 1547.457642,715.609802 
	C1547.125732,715.569580 1546.793701,715.529358 1546.461792,715.489197 
	C1537.540039,686.594849 1528.618286,657.700500 1519.696533,628.806091 
	C1519.486328,628.846985 1519.276123,628.887817 1519.065918,628.928711 
	C1519.065918,675.286438 1519.065918,721.644165 1519.065918,768.118530 
	C1522.222046,768.118530 1525.254639,768.118530 1528.796875,768.118530 
	C1528.796875,742.928833 1528.796875,718.135559 1528.796875,693.342346 
	C1529.084717,693.308105 1529.372437,693.273865 1529.660278,693.239563 
	C1535.281250,711.127625 1540.902344,729.015625 1546.523438,746.903625 
	C1546.841553,746.895325 1547.159668,746.886963 1547.477783,746.878662 
	C1553.335327,728.635864 1559.192871,710.393066 1565.050415,692.150269 
	C1565.433105,692.242126 1565.815918,692.333984 1566.198608,692.425781 
	C1566.198608,717.675293 1566.198608,742.924805 1566.198608,768.103333 
	C1569.597290,768.103333 1572.636230,768.103333 1575.642212,768.103333 
	C1575.642212,721.003723 1575.642212,674.320251 1575.642212,627.636780 
	C1575.428345,627.590637 1575.214355,627.544495 1575.000488,627.498291 
	C1570.596802,641.717285 1566.193115,655.936279 1561.485229,670.897522 
M1663.474487,720.499634 
	C1663.474487,736.409851 1663.474487,752.320068 1663.474487,768.101440 
	C1667.578735,768.101440 1670.959839,768.101440 1674.841187,768.101440 
	C1674.841187,756.850464 1674.841187,746.019897 1674.841187,733.738464 
	C1676.438110,736.409668 1677.148193,737.853760 1678.088257,739.128174 
	C1684.389526,747.671448 1690.617310,756.274597 1697.171143,764.620911 
	C1698.581177,766.416809 1701.131470,768.102478 1703.320679,768.342529 
	C1708.329224,768.891785 1713.439209,768.516296 1719.656372,768.516296 
	C1703.688354,757.908142 1692.476685,744.377380 1683.456055,731.076416 
	C1686.913086,726.952576 1690.090698,723.509888 1692.856934,719.763245 
	C1695.602173,716.044983 1698.634766,712.302185 1700.326294,708.082947 
	C1708.059326,688.794250 1707.882202,669.383057 1698.834106,650.611938 
	C1692.497437,637.465698 1677.846802,629.834534 1663.474487,631.230835 
	C1663.474487,660.622742 1663.474487,690.061157 1663.474487,720.499634 
M1044.552246,689.022400 
	C1044.679932,688.738281 1044.779541,688.434875 1044.953369,688.182434 
	C1045.002686,688.110840 1045.381104,688.131958 1045.417847,688.205627 
	C1045.987183,689.348267 1046.611694,690.474243 1047.057373,691.666138 
	C1056.421387,716.706299 1065.759277,741.756104 1075.121094,766.797119 
	C1075.828735,768.689880 1076.676514,770.530273 1077.829468,773.277344 
	C1077.829468,725.445312 1077.829468,678.713745 1077.829468,632.071411 
	C1074.385620,632.071411 1071.283447,632.071411 1067.685791,632.071411 
	C1067.685791,660.582520 1067.685791,688.855530 1067.685791,717.128540 
	C1067.392334,717.171570 1067.098999,717.214661 1066.805542,717.257690 
	C1056.102539,687.411621 1045.399414,657.565491 1034.696289,627.719421 
	C1034.508545,627.791809 1034.320679,627.864258 1034.132935,627.936646 
	C1034.132935,674.675232 1034.132935,721.413757 1034.132935,768.175171 
	C1037.680176,768.175171 1040.916626,768.175171 1044.510010,768.175171 
	C1044.510010,741.874756 1044.510010,715.904236 1044.552246,689.022400 
M1495.848145,673.500061 
	C1495.848145,659.726318 1495.848145,645.952576 1495.848145,632.001099 
	C1491.869995,632.001099 1488.419922,632.001099 1484.477783,632.001099 
	C1484.477783,633.951172 1484.477783,635.748047 1484.477661,637.544922 
	C1484.475952,666.191467 1484.670288,694.840088 1484.355225,723.483215 
	C1484.258789,732.237671 1483.219238,741.053894 1481.755371,749.696899 
	C1480.707397,755.885681 1476.842163,758.865967 1472.223022,758.986450 
	C1467.375854,759.112915 1463.450928,756.125061 1462.198120,749.678284 
	C1460.747681,742.214783 1459.710449,734.549561 1459.638306,726.961060 
	C1459.355103,697.151367 1459.522461,667.337402 1459.522339,637.525024 
	C1459.522339,635.732849 1459.522217,633.940674 1459.522217,632.210083 
	C1455.446289,632.210083 1451.898804,632.210083 1448.163696,632.210083 
	C1448.163696,665.728333 1447.851685,698.859558 1448.382568,731.977356 
	C1448.515747,740.290588 1450.682007,748.765503 1453.129761,756.795532 
	C1455.869019,765.782043 1462.680908,770.062134 1471.494141,770.177124 
	C1480.794678,770.298401 1487.559570,766.186279 1490.745239,757.256836 
	C1492.843384,751.375244 1494.684570,745.076660 1494.894409,738.905457 
	C1495.623901,717.451050 1495.591064,695.970642 1495.848145,673.500061 
M1392.009277,755.487000 
	C1392.009277,748.415405 1392.009277,741.343872 1392.009277,734.389526 
	C1399.422852,734.389526 1406.036743,734.389526 1413.237793,734.389526 
	C1413.237793,745.784241 1413.237793,756.979553 1413.237793,768.192139 
	C1417.424561,768.192139 1421.008789,768.192139 1424.573242,768.192139 
	C1424.573242,722.631042 1424.573242,677.400269 1424.573242,632.085571 
	C1420.717041,632.085571 1417.135742,632.085571 1413.058716,632.085571 
	C1413.058716,663.387207 1413.058716,694.426880 1413.058716,725.553650 
	C1405.818359,725.553650 1399.082764,725.553650 1391.932373,725.553650 
	C1391.932373,694.227905 1391.932373,663.165405 1391.932373,632.024597 
	C1388.092285,632.024597 1384.674072,632.024597 1381.168945,632.024597 
	C1381.168945,677.557800 1381.168945,722.885559 1381.168945,768.234009 
	C1384.946289,768.234009 1388.370605,768.234009 1392.009277,768.234009 
	C1392.009277,764.127930 1392.009277,760.304382 1392.009277,755.487000 
M1988.727539,757.085754 
	C1990.143677,750.778931 1992.688721,744.489929 1992.788452,738.162292 
	C1993.339966,703.188599 1993.296387,668.205505 1993.440430,633.225586 
	C1993.441650,632.920044 1993.220093,632.613525 1993.042847,632.152222 
	C1989.548706,632.152222 1986.007568,632.152222 1982.159912,632.152222 
	C1982.159912,634.115234 1982.159912,635.754456 1982.159912,637.393738 
	C1982.160034,666.384521 1982.353271,695.377380 1982.041260,724.364807 
	C1981.948730,732.953918 1980.955566,741.624146 1979.397095,750.076843 
	C1978.238403,756.360901 1974.346680,759.104919 1969.591553,758.984619 
	C1963.915405,758.841064 1961.637085,754.874512 1960.028076,750.264404 
	C1959.537720,748.859192 1959.093262,747.391296 1958.947510,745.920410 
	C1958.292480,739.309204 1957.291382,732.689392 1957.250732,726.067627 
	C1957.068359,696.411499 1957.171265,666.753662 1957.171265,637.096436 
	C1957.171265,635.476013 1957.171143,633.855591 1957.171143,632.165771 
	C1953.211548,632.165771 1949.690063,632.165771 1946.121094,632.165771 
	C1946.121094,666.144287 1945.855591,699.786194 1946.322632,733.417969 
	C1946.428955,741.077576 1948.518555,748.862732 1950.689697,756.299927 
	C1953.138184,764.687439 1959.165527,769.644165 1968.226807,770.133179 
	C1977.759155,770.647766 1984.583130,766.650330 1988.727539,757.085754 
M768.124084,686.580261 
	C768.765320,703.675476 768.926880,720.807434 770.231445,737.851868 
	C770.989624,747.757446 773.439819,757.641724 780.554138,765.351990 
	C787.358032,772.725830 797.997559,772.457703 803.830322,764.306213 
	C807.033325,759.829834 809.780945,754.502319 810.932678,749.169617 
	C817.829285,717.236633 817.721985,685.130188 810.958069,653.214172 
	C809.601074,646.811279 806.341980,640.299744 802.332336,635.091187 
	C796.375427,627.352966 785.995544,628.082520 780.144409,635.977783 
	C777.525696,639.511353 774.963440,643.638428 774.134460,647.842957 
	C771.670837,660.338379 770.080383,673.005920 768.124084,686.580261 
M1603.204712,645.760864 
	C1602.128906,649.597168 1600.749512,653.377197 1600.026611,657.278931 
	C1595.256592,683.020996 1595.544922,708.924683 1598.285278,734.820679 
	C1599.369751,745.068726 1601.329834,755.274780 1607.782349,763.836365 
	C1614.521729,772.778442 1626.362183,773.065796 1632.715454,763.928101 
	C1635.957764,759.264954 1638.643677,753.728210 1639.837646,748.209167 
	C1646.100464,719.260132 1645.763794,690.028259 1641.206909,660.932373 
	C1639.929565,652.777100 1636.884644,644.451172 1632.756470,637.296387 
	C1626.777710,626.934265 1614.649414,627.324951 1607.776978,637.201782 
	C1606.086548,639.631104 1604.940552,642.439148 1603.204712,645.760864 
M1234.822388,749.499634 
	C1234.822388,755.950134 1234.822388,762.400696 1234.822388,769.715332 
	C1239.093750,768.830078 1242.875000,768.425476 1246.398926,767.249939 
	C1261.006470,762.376770 1267.959839,750.664490 1271.971924,736.971069 
	C1278.115356,716.004150 1278.199219,694.667542 1274.401245,673.257568 
	C1272.369873,661.806946 1268.639404,651.076660 1260.728760,642.214111 
	C1253.941406,634.610107 1245.351196,631.128540 1234.822388,630.806152 
	C1234.822388,670.313354 1234.822388,709.406616 1234.822388,749.499634 
M916.995850,639.534668 
	C916.995850,682.407227 916.995850,725.279846 916.995850,768.229248 
	C920.954041,768.229248 924.371704,768.229248 928.004089,768.229248 
	C928.004089,757.972046 928.108032,747.992004 927.934753,738.016785 
	C927.888489,735.356506 928.891357,734.068237 930.945312,732.476440 
	C936.559204,728.126160 942.591431,723.938354 947.027954,718.516174 
	C961.027283,701.406433 961.298157,681.493835 956.262756,661.285278 
	C951.292480,641.338440 935.671509,629.710266 916.995850,631.204651 
	C916.995850,633.618713 916.995850,636.083496 916.995850,639.534668 
M1155.998291,635.459412 
	C1147.576050,679.651917 1139.153931,723.844360 1130.709717,768.152832 
	C1134.678589,768.152832 1138.081909,768.152832 1141.536499,768.152832 
	C1143.545044,756.724487 1145.492920,745.640503 1147.468018,734.401978 
	C1154.085205,734.401978 1160.348999,734.401978 1166.820312,734.401978 
	C1168.864746,745.846619 1170.890503,757.186584 1172.882935,768.340210 
	C1176.972656,768.340210 1180.277100,768.340210 1184.016602,768.340210 
	C1175.443115,721.321594 1166.915649,674.554688 1158.388062,627.787720 
	C1158.081543,627.830627 1157.775146,627.873535 1157.468628,627.916382 
	C1157.020508,630.156677 1156.572388,632.396912 1155.998291,635.459412 
M999.141174,670.229675 
	C996.605408,656.169617 994.069641,642.109619 991.533813,628.049561 
	C991.186035,628.079163 990.838196,628.108765 990.490356,628.138367 
	C981.592957,674.773193 972.695496,721.408081 963.767334,768.203735 
	C967.713623,768.203735 971.130676,768.203735 974.622192,768.203735 
	C976.614990,756.814453 978.556458,745.718323 980.531799,734.428955 
	C987.078064,734.428955 993.343933,734.428955 999.893921,734.428955 
	C1001.933838,745.807312 1003.968262,757.154846 1005.934937,768.124573 
	C1010.065857,768.124573 1013.444702,768.124573 1017.092102,768.124573 
	C1011.109192,735.484070 1005.206177,703.279785 999.141174,670.229675 
M2162.369629,714.771362 
	C2158.998535,732.511047 2155.627197,750.250793 2152.209717,768.232544 
	C2156.041260,768.232544 2159.435303,768.232544 2163.000244,768.232544 
	C2165.039795,756.767029 2167.035645,745.547180 2169.031006,734.329468 
	C2175.657471,734.329468 2181.781738,734.329468 2188.323975,734.329468 
	C2190.325928,745.645081 2192.315674,756.890686 2194.335693,768.307983 
	C2197.959229,768.307983 2201.407471,768.307983 2205.505127,768.307983 
	C2196.886719,720.987305 2188.322754,673.965759 2179.758789,626.944214 
	C2179.551758,626.931396 2179.344971,626.918579 2179.137939,626.905701 
	C2173.625244,655.918213 2168.112549,684.930725 2162.369629,714.771362 
M1796.033081,661.444885 
	C1793.122681,671.608337 1790.212280,681.771790 1787.301880,691.935303 
	C1786.974609,691.850525 1786.647339,691.765747 1786.320068,691.680969 
	C1780.578247,671.777405 1774.836304,651.873840 1769.156738,632.186401 
	C1765.171387,632.186401 1761.638062,632.186401 1757.819702,632.186401 
	C1762.009521,646.090393 1765.397095,659.829773 1770.287720,673.011475 
	C1778.921997,696.283020 1782.656738,720.049866 1780.911987,744.800110 
	C1780.366699,752.536072 1780.827026,760.342957 1780.827026,768.284973 
	C1784.771606,768.284973 1788.199219,768.284973 1792.006470,768.284973 
	C1792.006470,766.436218 1792.006470,764.804382 1792.006470,763.172546 
	C1792.006470,745.856812 1791.970215,728.540894 1792.050415,711.225525 
	C1792.061035,708.940674 1792.407471,706.584229 1793.039673,704.387878 
	C1796.068604,693.864746 1799.244507,683.383728 1802.377563,672.890564 
	C1806.406372,659.396606 1810.443970,645.905151 1814.563110,632.126831 
	C1810.828735,632.126831 1807.586426,632.126831 1804.461060,632.126831 
	C1801.644409,641.841125 1798.918091,651.244263 1796.033081,661.444885 
M2014.659424,757.525940 
	C2014.600098,758.853027 2014.495605,760.179810 2014.488770,761.507202 
	C2014.452148,768.766602 2015.388428,769.762268 2022.536255,770.149841 
	C2036.733032,770.919739 2046.953369,763.937317 2050.898682,750.153015 
	C2055.521484,734.001282 2052.508545,718.911438 2043.565918,704.869324 
	C2038.481323,696.885376 2032.945923,689.148254 2028.418579,680.860291 
	C2023.099731,671.123108 2022.185303,660.548828 2025.944946,649.981934 
	C2028.815796,641.912659 2036.105957,638.896851 2044.080444,641.915894 
	C2044.904175,642.227844 2045.751831,642.476746 2046.844727,642.840088 
	C2046.844727,641.430725 2046.840698,640.436279 2046.845459,639.441833 
	C2046.884155,631.416565 2045.216187,629.774292 2037.070190,629.820801 
	C2025.426025,629.887268 2016.634766,637.779541 2014.013672,650.712280 
	C2011.181885,664.686035 2013.501099,677.793579 2020.994385,689.950012 
	C2026.047729,698.148132 2031.285767,706.237305 2036.150635,714.545288 
	C2041.410645,723.528076 2042.510986,733.376221 2040.864136,743.502380 
	C2038.683228,756.911987 2027.259155,762.961182 2014.659424,757.525940 
M1308.000000,751.424683 
	C1308.000000,745.808838 1308.000000,740.193054 1308.000000,734.116699 
	C1313.691650,734.116699 1318.936523,734.116699 1324.323486,734.116699 
	C1324.323486,731.211914 1324.323486,728.778503 1324.323486,725.873291 
	C1318.928101,725.873291 1313.683228,725.873291 1308.368652,725.873291 
	C1308.368652,697.904541 1308.368652,670.409180 1308.368652,642.647766 
	C1314.018921,642.647766 1319.300415,642.647766 1324.770508,642.647766 
	C1324.770508,638.976257 1324.770508,635.574341 1324.770508,632.195557 
	C1315.340576,632.195557 1306.144653,632.195557 1297.120728,632.195557 
	C1297.120728,677.787292 1297.120728,723.015686 1297.120728,768.493408 
	C1302.213257,768.493408 1307.023315,768.493408 1311.833374,768.493408 
	C1316.594971,768.493408 1321.356689,768.493408 1326.298828,768.493408 
	C1326.298828,764.715210 1326.298828,761.598694 1326.298828,757.918213 
	C1320.242676,757.918213 1314.185303,757.918213 1308.000000,757.918213 
	C1308.000000,755.706055 1308.000000,754.053467 1308.000000,751.424683 
M2139.662842,757.362549 
	C2138.735107,757.619812 2137.780029,757.804993 2136.884033,758.145813 
	C2129.406982,760.989807 2124.212402,759.150696 2120.963867,751.878235 
	C2119.221436,747.977905 2117.847168,743.777771 2117.140381,739.572754 
	C2113.424805,717.465637 2113.579590,695.182434 2115.548828,672.966553 
	C2116.286133,664.645447 2118.375244,656.265259 2121.118652,648.352478 
	C2123.721191,640.846741 2129.474365,639.125366 2136.914062,641.986633 
	C2137.789062,642.323181 2138.677490,642.625854 2139.846680,643.047852 
	C2139.846680,640.534058 2139.626709,638.348267 2139.896240,636.224670 
	C2140.349609,632.651672 2138.590820,631.085388 2135.427002,630.268738 
	C2127.297119,628.170044 2119.203369,630.432190 2114.787354,637.621582 
	C2111.381104,643.167114 2108.482422,649.449341 2107.166504,655.779968 
	C2101.595215,682.579834 2101.826904,709.658569 2105.677246,736.639587 
	C2106.761963,744.241089 2109.320557,751.826233 2112.403320,758.895630 
	C2115.673828,766.395447 2121.891357,770.607788 2130.670166,770.221252 
	C2138.967041,769.855957 2139.856689,769.105408 2139.846436,760.695679 
	C2139.845459,759.863403 2139.835693,759.031128 2139.662842,757.362549 
M755.512634,635.883118 
	C756.192688,631.727905 753.280212,630.762451 750.229492,630.138123 
	C741.330139,628.316711 733.847412,631.187988 729.292847,639.122437 
	C726.523438,643.947144 724.355347,649.329346 723.032471,654.734131 
	C718.195557,674.495972 718.478394,694.684753 719.181885,714.825012 
	C719.658264,728.461365 720.709045,742.099487 726.002747,754.936096 
	C728.666016,761.394287 732.371094,767.015442 739.491760,769.405701 
	C751.032349,773.279541 756.524292,769.202209 755.340210,757.596802 
	C755.329651,757.493164 755.106079,757.411255 754.981934,757.319275 
	C743.635681,761.595703 738.846252,759.264648 734.877563,747.455566 
	C734.139282,745.258911 733.420227,743.023132 733.029114,740.747498 
	C728.937744,716.943665 729.059143,693.006592 731.665894,669.111572 
	C732.463562,661.799133 734.572083,654.464417 737.196106,647.564209 
	C739.670898,641.056641 744.985535,639.417725 751.569092,641.643066 
	C752.754944,642.043945 753.918945,642.509399 755.512695,643.100769 
	C755.512695,640.681580 755.512695,638.708801 755.512634,635.883118 
M2072.146240,766.961975 
	C2075.726807,767.696472 2079.307617,768.430908 2083.321777,769.254333 
	C2083.321777,722.776672 2083.321777,677.544800 2083.321777,632.050781 
	C2079.644775,632.050781 2076.052002,632.050781 2072.127930,632.050781 
	C2072.127930,676.828674 2072.127930,721.440369 2072.146240,766.961975 
M1113.999023,738.500000 
	C1113.999023,703.056335 1113.999023,667.612732 1113.999023,632.203003 
	C1110.001465,632.203003 1106.471191,632.203003 1103.156738,632.203003 
	C1103.156738,677.826050 1103.156738,723.079529 1103.156738,768.210388 
	C1106.894897,768.210388 1110.311646,768.210388 1113.999023,768.210388 
	C1113.999023,758.454773 1113.999023,748.977356 1113.999023,738.500000 
M286.493469,493.996490 
	C279.515442,494.352020 274.496826,497.596222 272.021515,504.213867 
	C269.690002,510.447174 271.112854,516.054993 275.829102,520.617554 
	C280.567657,525.201782 286.244659,526.185364 292.397522,523.816467 
	C298.631470,521.416321 302.695953,514.542664 301.956787,507.878448 
	C301.131226,500.434967 295.936096,495.505493 286.493469,493.996490 
M1073.842773,620.573059 
	C1079.696411,617.218933 1080.223999,615.739624 1078.217773,608.029846 
	C1071.983521,615.022217 1064.743164,613.727478 1057.232666,610.780090 
	C1053.400513,609.276306 1049.572998,607.403015 1045.572266,606.757812 
	C1035.422241,605.120972 1030.370972,610.217285 1031.356201,621.036316 
	C1035.985352,615.782837 1041.481445,613.885315 1047.940430,615.967224 
	C1051.079834,616.979126 1054.116699,618.326660 1057.158081,619.620605 
	C1062.343994,621.826965 1067.590454,622.954407 1073.842773,620.573059 
M1963.662598,627.019531 
	C1968.687866,628.015259 1971.859619,625.893982 1974.518555,621.595947 
	C1978.090454,615.822693 1982.337280,610.467102 1986.289185,604.928650 
	C1987.652588,603.017761 1989.000488,601.095764 1990.355469,599.178894 
	C1990.087769,598.761963 1989.820068,598.344971 1989.552368,597.927979 
	C1985.621460,598.535889 1979.984741,597.716492 1978.066772,600.008789 
	C1971.230225,608.178650 1965.657959,617.406433 1959.068604,627.019470 
	C1960.944824,627.019470 1961.864746,627.019470 1963.662598,627.019531 
z"/>
<path fill="#FCFCFC" opacity="1.000000" stroke="none" 
	d="
M285.240051,663.621277 
	C289.443054,674.527588 293.663513,685.012939 297.505157,695.635315 
	C304.009888,713.621338 309.896118,731.840088 316.770569,749.680359 
	C321.600952,762.215698 327.670258,774.271973 333.105316,786.577942 
	C333.884674,788.342529 334.207611,790.308838 334.741791,792.181763 
	C334.336212,792.532471 333.930603,792.883179 333.525024,793.233887 
	C329.843903,789.950378 325.724518,787.039673 322.558167,783.318176 
	C309.458099,767.921326 296.636047,752.287720 283.733337,736.723267 
	C277.510712,729.216919 271.089050,721.856750 265.230438,714.074341 
	C261.651367,709.319885 259.312744,703.642090 255.821625,698.809021 
	C246.110153,685.364502 235.891449,672.284912 226.248352,658.792908 
	C218.155487,647.469971 210.377914,635.906555 202.843842,624.203064 
	C192.696426,608.440063 182.191284,592.837585 173.200516,576.420959 
	C165.510788,562.380066 156.531967,549.349121 147.231827,536.442993 
	C146.359070,535.231812 145.290359,534.045471 144.826340,532.673767 
	C138.159515,512.966187 124.150276,497.275299 115.437248,478.593811 
	C107.959831,462.561584 97.867325,447.764954 89.267570,432.235657 
	C81.307877,417.862183 73.786720,403.245636 66.093666,388.724884 
	C65.160355,386.963226 64.363724,385.129333 63.496048,383.332642 
	C48.907104,353.123108 34.248306,322.946991 19.797720,292.671448 
	C17.515810,287.890564 15.755075,282.754272 14.607680,277.592407 
	C14.163977,275.596313 15.422759,272.249512 17.050825,270.919189 
	C29.900446,260.419434 43.112553,250.364609 56.027470,239.942810 
	C61.431431,235.582047 66.550354,230.830246 71.487450,225.941727 
	C74.916679,222.546234 72.175011,219.645966 69.551285,217.592285 
	C58.476513,208.923737 47.303455,200.376541 36.029903,191.967911 
	C30.300116,187.694244 24.363800,183.680466 18.360765,179.796616 
	C14.874677,177.541199 14.674292,175.329865 17.646683,172.706100 
	C34.195202,158.098495 50.128719,142.697296 67.512085,129.159058 
	C85.559814,115.103409 104.991409,102.819870 123.881454,89.854073 
	C128.318481,86.808571 130.411362,87.540169 131.471786,93.035271 
	C133.520447,103.651314 134.885025,114.397484 136.806580,125.040344 
	C140.560196,145.830017 144.248306,166.636902 148.426071,187.343338 
	C154.415756,217.030228 160.648300,246.671051 167.121674,276.256165 
	C170.178116,290.225067 174.274734,303.964050 177.461609,317.907440 
	C180.610764,331.685852 182.806229,345.688629 186.160904,359.411865 
	C189.394775,372.640991 193.542755,385.648132 197.349106,398.735382 
	C201.157364,411.829285 204.720276,425.005859 208.948288,437.964264 
	C222.916397,480.774994 237.117081,523.509949 251.269012,566.260559 
	C257.274811,584.403137 263.222900,602.567444 269.492310,620.619324 
	C274.457062,634.914673 279.872070,649.053589 285.240051,663.621277 
z"/>
<path fill="#EB0100" opacity="1.000000" stroke="none" 
	d="
M1819.430420,486.757141 
	C1811.772339,474.286560 1804.282959,462.143066 1796.640747,450.096619 
	C1793.263062,444.772369 1789.492554,439.698425 1786.060059,434.407288 
	C1784.088989,431.368958 1781.970947,431.114899 1778.950684,432.916565 
	C1749.372925,450.560577 1717.033081,456.809326 1683.113770,454.550629 
	C1658.089233,452.884247 1634.296265,446.016479 1613.314697,431.683746 
	C1589.764282,415.596252 1574.356689,393.786469 1569.464600,365.352203 
	C1564.730713,337.837433 1568.831665,311.216888 1578.571289,285.270111 
	C1589.691406,255.645309 1605.934082,228.758301 1622.893921,202.267227 
	C1624.974609,199.017227 1625.240845,196.744461 1623.017578,193.380127 
	C1612.851929,177.997055 1602.000244,162.945602 1593.273438,146.762054 
	C1580.106445,122.344627 1573.174805,96.235352 1576.789551,67.941071 
	C1578.554932,54.122723 1580.952515,40.693623 1587.590454,28.276424 
	C1598.603882,7.674541 1620.449707,1.474702 1640.693848,13.148300 
	C1656.603760,22.322592 1667.692017,35.710068 1676.334717,51.712204 
	C1690.131348,77.257095 1693.427979,104.743591 1691.417725,132.960602 
	C1689.611938,158.311066 1683.051758,182.714401 1672.867310,206.081223 
	C1670.078857,212.478592 1667.407227,218.937332 1665.016113,225.489822 
	C1664.434448,227.083572 1664.519287,229.589264 1665.409790,230.945267 
	C1672.238281,241.345062 1679.337158,251.567429 1686.361938,261.838135 
	C1689.266602,266.085236 1692.411865,270.186584 1695.044312,274.595123 
	C1697.127930,278.084686 1699.372559,279.228638 1703.181274,277.310944 
	C1719.255127,269.217590 1736.508545,266.474823 1754.136841,268.428619 
	C1777.441406,271.011566 1799.161011,278.210114 1814.892700,296.960175 
	C1822.342163,305.838898 1826.603638,316.550598 1828.894409,328.029755 
	C1832.375977,345.475372 1830.628174,362.505707 1824.916626,379.133057 
	C1819.710693,394.288483 1811.652832,407.781921 1799.231079,418.230347 
	C1796.545898,420.488831 1796.437988,422.447235 1798.207886,425.022430 
	C1806.950073,437.742493 1815.524902,450.582031 1824.487549,463.144836 
	C1835.167358,478.114410 1842.570557,494.245270 1842.492676,512.954346 
	C1842.386475,538.419312 1829.568359,556.658936 1808.753174,569.884460 
	C1795.692871,578.182800 1781.518066,583.918640 1766.019287,585.487671 
	C1747.223633,587.390503 1730.054199,582.839539 1715.028809,571.119446 
	C1708.267334,565.845154 1702.450073,559.678589 1699.370117,551.520020 
	C1693.820312,536.819031 1698.745483,521.115479 1711.927856,510.618866 
	C1727.567383,498.165802 1747.432861,496.232819 1763.088379,505.754791 
	C1781.536987,516.975586 1783.229492,537.732788 1772.019897,553.752625 
	C1766.462280,561.695190 1759.069336,567.523438 1749.411499,569.993469 
	C1748.839844,570.139587 1748.359253,570.641174 1746.241211,572.002502 
	C1749.800049,573.044067 1752.029175,574.153625 1754.316772,574.291138 
	C1768.177856,575.124329 1780.912720,571.105164 1793.106689,564.892090 
	C1801.576294,560.576721 1810.004395,556.260925 1815.794189,548.270325 
	C1825.117554,535.403259 1827.926758,521.071777 1824.921143,505.675629 
	C1823.692261,499.381165 1821.364624,493.301239 1819.430420,486.757141 
M1651.382446,426.138947 
	C1656.312988,428.527618 1661.140503,431.164917 1666.192871,433.259888 
	C1683.755371,440.542328 1702.029419,441.388702 1720.651733,438.967194 
	C1739.097900,436.568604 1756.098022,430.246246 1771.885620,420.506989 
	C1774.293945,419.021362 1775.028564,417.342255 1773.207520,414.774658 
	C1769.081909,408.957977 1765.072510,403.057831 1761.070801,397.154510 
	C1749.514038,380.105804 1738.012939,363.019348 1726.431152,345.987854 
	C1721.296021,338.436646 1716.006958,330.990326 1710.813721,323.478424 
	C1709.471069,321.536224 1708.099365,319.941132 1705.576904,321.818939 
	C1694.945679,329.732666 1687.275879,339.553467 1684.781372,352.969910 
	C1682.245117,366.611115 1686.578369,378.730621 1693.266235,390.057434 
	C1695.673828,394.134979 1699.687256,397.922546 1703.870728,400.135437 
	C1709.801636,403.272644 1716.572266,404.818604 1722.975586,407.068329 
	C1725.422607,407.928009 1727.846436,408.853180 1730.280884,409.748505 
	C1729.243286,411.324738 1728.500732,411.807953 1727.782349,411.774506 
	C1712.014282,411.040344 1696.234863,410.525665 1681.237671,404.582916 
	C1657.416748,395.143707 1644.756714,372.495636 1648.782959,347.602417 
	C1652.632446,323.800842 1665.409302,305.575378 1683.051025,290.233032 
	C1685.927490,287.731506 1686.018677,286.165314 1684.006104,283.313080 
	C1679.025146,276.254364 1674.295532,269.018402 1669.449707,261.863983 
	C1665.416016,255.908478 1661.360596,249.967682 1657.030151,243.602005 
	C1655.905762,244.947296 1655.009155,245.696442 1654.519165,246.653732 
	C1641.486694,272.109619 1628.272461,297.475983 1615.573730,323.097809 
	C1606.397827,341.611420 1605.005615,360.860687 1611.999756,380.566040 
	C1619.126831,400.645874 1632.929321,414.921143 1651.382446,426.138947 
M1605.487427,84.230255 
	C1601.114258,103.153572 1601.815796,121.645279 1608.574585,140.106552 
	C1613.606689,153.850967 1620.970825,166.121170 1629.053589,178.111771 
	C1633.947754,185.372177 1633.915771,185.375580 1638.365356,177.699570 
	C1639.281860,176.118408 1640.466553,174.687836 1641.330444,173.081802 
	C1646.285889,163.870651 1652.055054,154.976639 1655.915649,145.322220 
	C1663.870239,125.428902 1665.895508,104.464676 1663.659302,83.226250 
	C1662.559326,72.779251 1659.405640,62.756664 1653.526489,53.861568 
	C1646.504761,43.237591 1639.666748,41.931347 1629.306519,49.120510 
	C1617.117554,57.578575 1610.451904,69.855743 1605.487427,84.230255 
M1723.558228,313.883636 
	C1724.060303,315.348846 1724.270996,317.011566 1725.109375,318.248749 
	C1733.568604,330.729980 1742.135986,343.137848 1750.662109,355.573669 
	C1761.734863,371.723755 1772.828369,387.859650 1783.845215,404.047729 
	C1786.997803,408.679993 1787.080444,408.669250 1790.881226,404.686584 
	C1804.177612,390.753510 1808.060303,373.818420 1805.881348,355.385864 
	C1803.979126,339.292847 1796.935303,325.485260 1782.141968,317.769073 
	C1774.228760,313.641602 1765.138794,311.101196 1756.282837,309.621399 
	C1745.451416,307.811462 1734.464233,309.127380 1723.558228,313.883636 
z"/>
<path fill="#FEFEFE" opacity="1.000000" stroke="none" 
	d="
M2498.162109,401.999908 
	C2498.104736,376.693512 2497.911133,351.890778 2502.953125,327.400269 
	C2512.754395,279.792511 2534.481201,238.561951 2567.841553,203.159576 
	C2596.934082,172.286209 2632.498047,151.958527 2671.635254,137.057312 
	C2671.907471,136.953659 2672.273926,137.097809 2672.973877,137.159500 
	C2672.973877,202.859390 2672.973877,268.584259 2672.973877,334.679230 
	C2679.276855,334.679230 2685.215332,334.679230 2691.494629,334.679230 
	C2691.494629,345.620422 2691.494629,356.200500 2691.494629,367.295227 
	C2685.578369,367.295227 2679.501709,367.295227 2673.073486,367.295227 
	C2673.073486,509.702484 2673.073486,651.598938 2673.073486,793.747925 
	C2661.979248,793.747925 2651.242432,793.747925 2640.106445,793.747925 
	C2640.106445,651.833313 2640.106445,509.954803 2640.106445,367.792786 
	C2603.684814,367.792786 2567.660645,367.792786 2531.335449,367.792786 
	C2531.335449,399.153320 2531.335449,430.265259 2531.335449,461.688721 
	C2520.293457,461.688721 2509.544434,461.688721 2498.162109,461.688721 
	C2498.162109,442.016174 2498.162109,422.258057 2498.162109,401.999908 
M2557.046143,272.610382 
	C2546.549316,292.118927 2539.019287,312.661011 2534.987549,334.570251 
	C2570.187500,334.570251 2604.918945,334.570251 2639.801758,334.570251 
	C2639.801758,285.614044 2639.801758,236.920395 2639.801758,187.525314 
	C2604.223877,208.305435 2577.045898,236.441910 2557.046143,272.610382 
z"/>
<path fill="#FDFDFD" opacity="1.000000" stroke="none" 
	d="
M677.840088,351.787323 
	C659.675049,399.466705 627.690918,433.861969 580.104675,451.240479 
	C517.696106,474.032074 460.827087,461.888031 411.399231,417.759369 
	C383.732880,393.059082 366.908966,361.678894 360.848328,324.973145 
	C353.091644,277.995544 364.096283,235.401276 393.094330,197.852707 
	C419.846008,163.212875 455.181274,141.657150 498.557739,135.386078 
	C553.052307,127.507637 600.764587,143.503876 638.957703,182.948853 
	C685.307190,230.817429 698.092773,287.584106 677.840088,351.787323 
M626.087158,217.424744 
	C623.498779,214.388229 621.059082,211.208817 618.299255,208.337112 
	C587.468628,176.257187 549.930725,161.578445 505.665161,167.353683 
	C436.230530,176.412659 384.834015,241.176666 391.702515,310.518494 
	C397.496582,369.013153 445.873291,420.605469 504.405396,427.711090 
	C559.173462,434.359741 602.384094,413.364014 632.782532,368.068512 
	C664.125916,321.365021 660.901733,263.533813 626.087158,217.424744 
z"/>
<path fill="#FDFDFD" opacity="1.000000" stroke="none" 
	d="
M274.280884,48.496895 
	C281.084015,47.733253 287.464111,47.052143 293.849701,46.426929 
	C294.663635,46.347237 295.634186,46.315426 296.315979,46.673321 
	C304.840729,51.148190 311.138794,46.538731 318.277435,42.391159 
	C336.233978,31.958338 355.267700,24.090490 376.316162,22.259914 
	C379.454132,21.987009 382.530243,21.066395 385.658539,20.605051 
	C390.699097,19.861694 394.959259,22.375166 396.399506,27.279871 
	C402.924255,49.499523 404.811890,72.042633 400.446503,94.905365 
	C399.263947,101.098625 397.559357,107.193558 396.049438,113.322556 
	C394.756744,118.569817 391.101959,120.665817 386.006134,120.288017 
	C362.301849,118.530579 339.835785,112.261292 318.684631,101.406509 
	C316.796509,100.437523 315.381683,98.563728 313.513153,97.535011 
	C310.787842,96.034584 307.850372,94.919617 304.068787,93.220398 
	C304.068787,217.409943 304.068787,339.972687 304.068787,462.769226 
	C292.275482,462.769226 280.872131,462.769226 269.075073,462.769226 
	C269.075073,340.289368 269.075073,217.898773 269.075073,94.515961 
	C266.531952,95.357658 264.311371,95.557228 262.770721,96.685356 
	C247.375076,107.958511 229.689957,113.234138 211.279861,116.665573 
	C204.405167,117.946945 197.503220,119.082207 190.629074,120.366409 
	C184.114517,121.583427 181.372726,120.765945 179.478287,114.445473 
	C176.485550,104.460625 173.721664,94.278702 172.295532,83.981499 
	C169.883392,66.565094 173.502701,49.503632 177.584198,32.629440 
	C179.944061,22.873104 183.293930,20.543327 193.232803,22.216858 
	C211.449921,25.284294 229.740051,28.309460 246.413513,36.888351 
	C251.704147,39.610508 256.683655,42.991032 261.600616,46.368591 
	C265.451569,49.013897 269.378876,50.014664 274.280884,48.496895 
z"/>
<path fill="#FCFCFC" opacity="1.000000" stroke="none" 
	d="
M1068.172852,233.000092 
	C1068.172852,267.110352 1068.172852,300.720612 1068.172852,334.692566 
	C1074.597290,334.692566 1080.530640,334.692566 1086.730469,334.692566 
	C1086.730469,345.650940 1086.730469,356.250916 1086.730469,367.433777 
	C1080.760010,367.433777 1074.702148,367.433777 1068.355713,367.433777 
	C1068.355713,399.128265 1068.355713,430.245117 1068.355713,461.682709 
	C1057.313232,461.682709 1046.562012,461.682709 1035.319946,461.682709 
	C1035.319946,430.567413 1035.319946,399.338196 1035.319946,367.813721 
	C998.951416,367.813721 963.069824,367.813721 926.643799,367.813721 
	C926.643799,399.114746 926.643799,430.341736 926.643799,461.780640 
	C915.365173,461.780640 904.630371,461.780640 893.749817,461.780640 
	C893.646545,460.936096 893.496582,460.294189 893.499878,459.653076 
	C893.670837,426.168701 892.603821,392.620087 894.321289,359.214691 
	C897.117371,304.831238 917.509460,256.881165 952.321228,215.118637 
	C981.210754,180.460724 1017.441895,156.151703 1059.420532,140.112595 
	C1062.169678,139.062180 1064.885498,137.924286 1068.172852,136.603745 
	C1068.172852,168.938095 1068.172852,200.719086 1068.172852,233.000092 
M974.602783,239.127533 
	C952.034546,267.309631 937.050598,298.973053 930.219604,334.469269 
	C965.495544,334.469269 1000.224365,334.469269 1034.757568,334.469269 
	C1034.757568,285.448853 1034.757568,236.789093 1034.757568,187.732269 
	C1011.411377,201.213150 991.813477,218.227432 974.602783,239.127533 
z"/>
<path fill="#FDFDFD" opacity="1.000000" stroke="none" 
	d="
M1234.038574,462.002991 
	C1230.895996,462.002991 1228.248291,462.002991 1224.997192,462.002991 
	C1224.997192,460.228210 1224.994751,458.634949 1224.997559,457.041687 
	C1225.051270,427.056732 1224.501221,397.055695 1225.297363,367.090454 
	C1226.584473,318.644684 1241.612915,274.436066 1269.053345,234.538895 
	C1299.188599,190.723419 1339.590454,159.946350 1389.113892,140.924149 
	C1392.482056,139.630432 1395.782959,138.161972 1399.697754,136.532272 
	C1399.697754,202.845261 1399.697754,268.537415 1399.697754,334.672821 
	C1406.042358,334.672821 1411.970947,334.672821 1418.203003,334.672821 
	C1418.203003,345.683411 1418.203003,356.254852 1418.203003,367.276917 
	C1412.268555,367.276917 1406.349609,367.276917 1399.977539,367.276917 
	C1399.977539,398.954346 1399.977539,430.189819 1399.977539,461.712616 
	C1388.795288,461.712616 1378.064453,461.712616 1366.845703,461.712616 
	C1366.845703,430.466675 1366.845703,399.249298 1366.845703,367.774719 
	C1330.426880,367.774719 1294.491943,367.774719 1258.178955,367.774719 
	C1258.178955,398.911621 1258.178955,430.161346 1258.178955,462.002991 
	C1250.055176,462.002991 1242.294312,462.002991 1234.038574,462.002991 
M1351.494873,334.832703 
	C1356.445679,334.832703 1361.396606,334.832703 1366.583130,334.832703 
	C1366.583130,285.658051 1366.583130,236.982162 1366.583130,188.253967 
	C1323.732910,203.489822 1263.681274,287.658020 1262.143188,334.832703 
	C1291.601440,334.832703 1321.049194,334.832703 1351.494873,334.832703 
z"/>
<path fill="#FDFDFD" opacity="1.000000" stroke="none" 
	d="
M2252.425293,440.433167 
	C2211.123291,478.884491 2147.366211,463.741791 2128.516602,410.931610 
	C2125.507568,402.501709 2124.221191,393.030121 2124.186279,384.032166 
	C2123.865723,301.540894 2123.997314,219.047867 2124.002930,136.555359 
	C2124.002930,135.729065 2124.082275,134.902771 2124.139648,133.783386 
	C2134.960938,133.783386 2145.709229,133.783386 2157.002930,133.783386 
	C2157.002930,135.766617 2157.002930,137.702393 2157.002930,139.638168 
	C2157.002930,220.964127 2156.986084,302.290070 2157.013916,383.616028 
	C2157.021729,406.021088 2170.596436,423.666138 2191.077637,428.109344 
	C2216.303711,433.581909 2241.094238,414.944702 2242.813477,389.187073 
	C2242.979492,386.696442 2242.989502,384.192169 2242.989746,381.694214 
	C2242.998535,301.034851 2242.997070,220.375519 2242.997070,139.716171 
	C2242.997070,137.888687 2242.997070,136.061218 2242.997070,133.861664 
	C2253.715088,133.861664 2264.260010,133.861664 2275.513916,133.861664 
	C2275.513916,135.558334 2275.513672,137.318130 2275.513672,139.077927 
	C2275.512695,220.903824 2275.479248,302.729767 2275.533203,384.555634 
	C2275.547607,406.288727 2268.036865,424.822113 2252.425293,440.433167 
z"/>
<path fill="#FDFDFD" opacity="1.000000" stroke="none" 
	d="
M2327.881836,201.884796 
	C2361.223877,157.936584 2405.024658,135.074219 2460.246582,133.217484 
	C2460.246582,144.555862 2460.246582,155.136993 2460.246582,165.719955 
	C2386.667236,165.386765 2325.320801,231.059662 2329.186523,304.030762 
	C2332.726074,370.852539 2385.399414,421.445618 2443.794434,427.872131 
	C2443.794434,407.903534 2443.794434,387.956757 2443.794434,367.563721 
	C2429.272461,367.563721 2414.867432,367.563721 2400.233643,367.563721 
	C2400.233643,356.536560 2400.233643,345.952637 2400.233643,335.097656 
	C2425.701416,335.097656 2451.111572,335.097656 2476.846924,335.097656 
	C2476.846924,377.112244 2476.846924,419.198242 2476.846924,461.310333 
	C2427.198730,466.660614 2364.789062,447.523163 2325.039062,389.680817 
	C2285.774658,332.544922 2286.998291,258.791321 2327.881836,201.884796 
z"/>
<path fill="#FDFDFD" opacity="1.000000" stroke="none" 
	d="
M733.000488,384.013611 
	C699.334961,326.084045 698.595276,267.937317 733.675903,211.377167 
	C765.106995,160.701141 812.520020,135.617188 872.503784,133.064896 
	C872.503784,144.389908 872.503784,154.931015 872.503784,165.888626 
	C830.915039,167.032013 796.618958,183.697006 770.294556,215.840576 
	C748.981445,241.865036 739.233826,272.061432 741.094727,305.717957 
	C744.686890,370.687500 800.957642,429.025635 872.840881,429.358093 
	C872.840881,434.777100 872.840881,440.219849 872.840881,445.662598 
	C872.840881,450.953613 872.840881,456.244629 872.840881,462.411407 
	C812.565430,460.054718 766.182312,434.254700 733.000488,384.013611 
z"/>
<path fill="#FFFFFF" opacity="1.000000" stroke="none" 
	d="
M2043.999023,295.000000 
	C2043.999023,350.802551 2043.999023,406.105133 2043.999023,461.703186 
	C2033.064575,461.703186 2022.326294,461.703186 2011.197632,461.703186 
	C2011.197632,395.061707 2011.197632,328.331665 2011.197632,261.202972 
	C2006.084106,261.202972 2001.337646,261.202972 1996.298950,261.202972 
	C1996.298950,250.072159 1996.298950,239.333435 1996.298950,228.192688 
	C2000.929321,228.192688 2005.677734,228.192688 2010.812744,228.192688 
	C2010.812744,196.394531 2010.812744,164.991165 2010.812744,133.295319 
	C2043.272827,133.295319 2075.340332,133.295319 2107.704102,133.295319 
	C2107.704102,143.935638 2107.704102,154.673813 2107.704102,165.811890 
	C2086.724121,165.811890 2065.652100,165.811890 2044.290771,165.811890 
	C2044.290771,186.609009 2044.290771,207.012146 2044.290771,227.815063 
	C2058.939209,227.815063 2073.679932,227.815063 2088.708252,227.815063 
	C2088.708252,238.945007 2088.708252,249.683029 2088.708252,260.821960 
	C2074.049316,260.821960 2059.308350,260.821960 2043.999023,260.821960 
	C2043.999023,272.307281 2043.999023,283.403656 2043.999023,295.000000 
z"/>
<path fill="#FBFBFB" opacity="1.000000" stroke="none" 
	d="
M1139.000488,133.480713 
	C1167.283569,133.480743 1195.066528,133.480743 1223.011475,133.480743 
	C1223.011475,144.454041 1223.011475,154.922302 1223.011475,165.861877 
	C1208.471924,165.861877 1193.904907,165.861877 1178.944946,165.861877 
	C1178.944946,264.688995 1178.944946,363.046967 1178.944946,461.705261 
	C1167.970581,461.705261 1157.388916,461.705261 1146.430664,461.705261 
	C1146.430664,363.416321 1146.430664,265.039764 1146.430664,166.192261 
	C1131.504395,166.192261 1116.937988,166.192261 1102.100830,166.192261 
	C1102.100830,155.153091 1102.100830,144.581543 1102.100830,133.480682 
	C1114.258911,133.480682 1126.379639,133.480682 1139.000488,133.480713 
z"/>
<path fill="#FBFBFB" opacity="1.000000" stroke="none" 
	d="
M1886.637939,725.457642 
	C1883.079346,714.226257 1879.674316,703.365845 1876.269165,692.505493 
	C1875.943970,692.554260 1875.618774,692.603027 1875.293579,692.651794 
	C1875.293579,717.773987 1875.293579,742.896118 1875.293579,768.262390 
	C1871.876221,768.262390 1868.960327,768.262390 1865.760010,768.262390 
	C1865.760010,721.566223 1865.760010,675.080261 1865.760010,628.594360 
	C1865.976562,628.537720 1866.193237,628.481079 1866.409790,628.424438 
	C1875.386230,657.501648 1884.362671,686.578857 1893.813965,717.194153 
	C1903.355103,686.705139 1912.474731,657.563538 1921.594238,628.421997 
	C1921.817627,628.473694 1922.040894,628.525330 1922.264282,628.577026 
	C1922.264282,675.051025 1922.264282,721.525024 1922.264282,768.255005 
	C1919.095581,768.255005 1916.182983,768.255005 1913.014160,768.255005 
	C1913.014160,742.933105 1913.014160,717.812012 1913.014160,692.690918 
	C1912.618286,692.582886 1912.222412,692.474854 1911.826538,692.366882 
	C1905.960205,710.600403 1900.093872,728.833923 1893.792114,748.420776 
	C1891.158936,739.922913 1888.975220,732.875732 1886.637939,725.457642 
z"/>
<path fill="#FAFAFA" opacity="1.000000" stroke="none" 
	d="
M850.486572,672.421143 
	C855.084167,687.182495 859.513306,701.579285 864.321289,717.207642 
	C873.890625,686.590332 883.038086,657.322876 892.185547,628.055420 
	C892.361816,628.079834 892.538086,628.104248 892.714355,628.128662 
	C892.714355,674.762634 892.714355,721.396545 892.714355,768.275391 
	C889.732971,768.275391 886.797729,768.275391 883.342529,768.275391 
	C883.342529,742.993591 883.342529,717.802368 883.342529,692.611145 
	C882.982056,692.549988 882.621582,692.488831 882.261108,692.427673 
	C876.425232,710.661926 870.589294,728.896118 864.346313,748.402222 
	C858.254456,729.059326 852.499451,710.786072 846.744446,692.512817 
	C846.496887,692.554688 846.249390,692.596558 846.001831,692.638489 
	C846.001831,717.672119 846.001831,742.705750 846.001831,768.128540 
	C842.610229,768.128540 839.561768,768.128540 836.242920,768.128540 
	C836.242920,721.459595 836.242920,674.780701 836.242920,628.101807 
	C836.428345,628.058472 836.613770,628.015137 836.799255,627.971802 
	C841.305481,642.666748 845.811768,657.361694 850.486572,672.421143 
z"/>
<path fill="#FAFAFA" opacity="1.000000" stroke="none" 
	d="
M1561.637329,670.526367 
	C1566.193115,655.936279 1570.596802,641.717285 1575.000488,627.498291 
	C1575.214355,627.544495 1575.428345,627.590637 1575.642212,627.636780 
	C1575.642212,674.320251 1575.642212,721.003723 1575.642212,768.103333 
	C1572.636230,768.103333 1569.597290,768.103333 1566.198608,768.103333 
	C1566.198608,742.924805 1566.198608,717.675293 1566.198608,692.425781 
	C1565.815918,692.333984 1565.433105,692.242126 1565.050415,692.150269 
	C1559.192871,710.393066 1553.335327,728.635864 1547.477783,746.878662 
	C1547.159668,746.886963 1546.841553,746.895325 1546.523438,746.903625 
	C1540.902344,729.015625 1535.281250,711.127625 1529.660278,693.239563 
	C1529.372437,693.273865 1529.084717,693.308105 1528.796875,693.342346 
	C1528.796875,718.135559 1528.796875,742.928833 1528.796875,768.118530 
	C1525.254639,768.118530 1522.222046,768.118530 1519.065918,768.118530 
	C1519.065918,721.644165 1519.065918,675.286438 1519.065918,628.928711 
	C1519.276123,628.887817 1519.486328,628.846985 1519.696533,628.806091 
	C1528.618286,657.700500 1537.540039,686.594849 1546.461792,715.489197 
	C1546.793701,715.529358 1547.125732,715.569580 1547.457642,715.609802 
	C1552.133545,700.705688 1556.809326,685.801636 1561.637329,670.526367 
z"/>
<path fill="#F8F8F8" opacity="1.000000" stroke="none" 
	d="
M1663.474487,719.999634 
	C1663.474487,690.061157 1663.474487,660.622742 1663.474487,631.230835 
	C1677.846802,629.834534 1692.497437,637.465698 1698.834106,650.611938 
	C1707.882202,669.383057 1708.059326,688.794250 1700.326294,708.082947 
	C1698.634766,712.302185 1695.602173,716.044983 1692.856934,719.763245 
	C1690.090698,723.509888 1686.913086,726.952576 1683.456055,731.076416 
	C1692.476685,744.377380 1703.688354,757.908142 1719.656372,768.516296 
	C1713.439209,768.516296 1708.329224,768.891785 1703.320679,768.342529 
	C1701.131470,768.102478 1698.581177,766.416809 1697.171143,764.620911 
	C1690.617310,756.274597 1684.389526,747.671448 1678.088257,739.128174 
	C1677.148193,737.853760 1676.438110,736.409668 1674.841187,733.738464 
	C1674.841187,746.019897 1674.841187,756.850464 1674.841187,768.101440 
	C1670.959839,768.101440 1667.578735,768.101440 1663.474487,768.101440 
	C1663.474487,752.320068 1663.474487,736.409851 1663.474487,719.999634 
M1692.871216,666.912476 
	C1688.603516,651.577087 1682.821899,644.082520 1674.841431,643.524170 
	C1674.841431,670.041870 1674.841431,696.559570 1674.841431,723.884460 
	C1684.341553,717.008972 1690.463623,708.733398 1692.932983,697.951233 
	C1695.232910,687.909729 1694.904541,677.824585 1692.871216,666.912476 
z"/>
<path fill="#FDFDFD" opacity="1.000000" stroke="none" 
	d="
M1044.531128,689.478027 
	C1044.510010,715.904236 1044.510010,741.874756 1044.510010,768.175171 
	C1040.916626,768.175171 1037.680176,768.175171 1034.132935,768.175171 
	C1034.132935,721.413757 1034.132935,674.675232 1034.132935,627.936646 
	C1034.320679,627.864258 1034.508545,627.791809 1034.696289,627.719421 
	C1045.399414,657.565491 1056.102539,687.411621 1066.805542,717.257690 
	C1067.098999,717.214661 1067.392334,717.171570 1067.685791,717.128540 
	C1067.685791,688.855530 1067.685791,660.582520 1067.685791,632.071411 
	C1071.283447,632.071411 1074.385620,632.071411 1077.829468,632.071411 
	C1077.829468,678.713745 1077.829468,725.445312 1077.829468,773.277344 
	C1076.676514,770.530273 1075.828735,768.689880 1075.121094,766.797119 
	C1065.759277,741.756104 1056.421387,716.706299 1047.057373,691.666138 
	C1046.611694,690.474243 1045.987183,689.348267 1045.417847,688.205627 
	C1045.381104,688.131958 1045.002686,688.110840 1044.953369,688.182434 
	C1044.779541,688.434875 1044.679932,688.738281 1044.531128,689.478027 
z"/>
<path fill="#F9F9F9" opacity="1.000000" stroke="none" 
	d="
M1495.848145,674.000122 
	C1495.591064,695.970642 1495.623901,717.451050 1494.894409,738.905457 
	C1494.684570,745.076660 1492.843384,751.375244 1490.745239,757.256836 
	C1487.559570,766.186279 1480.794678,770.298401 1471.494141,770.177124 
	C1462.680908,770.062134 1455.869019,765.782043 1453.129761,756.795532 
	C1450.682007,748.765503 1448.515747,740.290588 1448.382568,731.977356 
	C1447.851685,698.859558 1448.163696,665.728333 1448.163696,632.210083 
	C1451.898804,632.210083 1455.446289,632.210083 1459.522217,632.210083 
	C1459.522217,633.940674 1459.522339,635.732849 1459.522339,637.525024 
	C1459.522461,667.337402 1459.355103,697.151367 1459.638306,726.961060 
	C1459.710449,734.549561 1460.747681,742.214783 1462.198120,749.678284 
	C1463.450928,756.125061 1467.375854,759.112915 1472.223022,758.986450 
	C1476.842163,758.865967 1480.707397,755.885681 1481.755371,749.696899 
	C1483.219238,741.053894 1484.258789,732.237671 1484.355225,723.483215 
	C1484.670288,694.840088 1484.475952,666.191467 1484.477661,637.544922 
	C1484.477783,635.748047 1484.477783,633.951172 1484.477783,632.001099 
	C1488.419922,632.001099 1491.869995,632.001099 1495.848145,632.001099 
	C1495.848145,645.952576 1495.848145,659.726318 1495.848145,674.000122 
z"/>
<path fill="#FAFAFA" opacity="1.000000" stroke="none" 
	d="
M1392.009277,755.983887 
	C1392.009277,760.304382 1392.009277,764.127930 1392.009277,768.234009 
	C1388.370605,768.234009 1384.946289,768.234009 1381.168945,768.234009 
	C1381.168945,722.885559 1381.168945,677.557800 1381.168945,632.024597 
	C1384.674072,632.024597 1388.092285,632.024597 1391.932373,632.024597 
	C1391.932373,663.165405 1391.932373,694.227905 1391.932373,725.553650 
	C1399.082764,725.553650 1405.818359,725.553650 1413.058716,725.553650 
	C1413.058716,694.426880 1413.058716,663.387207 1413.058716,632.085571 
	C1417.135742,632.085571 1420.717041,632.085571 1424.573242,632.085571 
	C1424.573242,677.400269 1424.573242,722.631042 1424.573242,768.192139 
	C1421.008789,768.192139 1417.424561,768.192139 1413.237793,768.192139 
	C1413.237793,756.979553 1413.237793,745.784241 1413.237793,734.389526 
	C1406.036743,734.389526 1399.422852,734.389526 1392.009277,734.389526 
	C1392.009277,741.343872 1392.009277,748.415405 1392.009277,755.983887 
z"/>
<path fill="#FCFCFC" opacity="1.000000" stroke="none" 
	d="
M1988.545654,757.420410 
	C1984.583130,766.650330 1977.759155,770.647766 1968.226807,770.133179 
	C1959.165527,769.644165 1953.138184,764.687439 1950.689697,756.299927 
	C1948.518555,748.862732 1946.428955,741.077576 1946.322632,733.417969 
	C1945.855591,699.786194 1946.121094,666.144287 1946.121094,632.165771 
	C1949.690063,632.165771 1953.211548,632.165771 1957.171143,632.165771 
	C1957.171143,633.855591 1957.171265,635.476013 1957.171265,637.096436 
	C1957.171265,666.753662 1957.068359,696.411499 1957.250732,726.067627 
	C1957.291382,732.689392 1958.292480,739.309204 1958.947510,745.920410 
	C1959.093262,747.391296 1959.537720,748.859192 1960.028076,750.264404 
	C1961.637085,754.874512 1963.915405,758.841064 1969.591553,758.984619 
	C1974.346680,759.104919 1978.238403,756.360901 1979.397095,750.076843 
	C1980.955566,741.624146 1981.948730,732.953918 1982.041260,724.364807 
	C1982.353271,695.377380 1982.160034,666.384521 1982.159912,637.393738 
	C1982.159912,635.754456 1982.159912,634.115234 1982.159912,632.152222 
	C1986.007568,632.152222 1989.548706,632.152222 1993.042847,632.152222 
	C1993.220093,632.613525 1993.441650,632.920044 1993.440430,633.225586 
	C1993.296387,668.205505 1993.339966,703.188599 1992.788452,738.162292 
	C1992.688721,744.489929 1990.143677,750.778931 1988.545654,757.420410 
z"/>
<path fill="#F9F9F9" opacity="1.000000" stroke="none" 
	d="
M768.136353,686.093262 
	C770.080383,673.005920 771.670837,660.338379 774.134460,647.842957 
	C774.963440,643.638428 777.525696,639.511353 780.144409,635.977783 
	C785.995544,628.082520 796.375427,627.352966 802.332336,635.091187 
	C806.341980,640.299744 809.601074,646.811279 810.958069,653.214172 
	C817.721985,685.130188 817.829285,717.236633 810.932678,749.169617 
	C809.780945,754.502319 807.033325,759.829834 803.830322,764.306213 
	C797.997559,772.457703 787.358032,772.725830 780.554138,765.351990 
	C773.439819,757.641724 770.989624,747.757446 770.231445,737.851868 
	C768.926880,720.807434 768.765320,703.675476 768.136353,686.093262 
M803.166931,731.588989 
	C805.243042,709.499695 805.182800,687.397888 802.590393,665.381470 
	C801.805542,658.715637 799.652649,652.129639 797.396667,645.765747 
	C796.682922,643.752258 793.675293,641.500793 791.578125,641.354431 
	C789.833801,641.232666 787.105896,643.670410 786.190247,645.620667 
	C784.310425,649.624390 782.839600,653.974182 782.100830,658.334045 
	C777.961853,682.761414 778.162170,707.360107 780.390625,731.921631 
	C781.057617,739.272644 783.063721,746.604248 785.363098,753.648743 
	C786.146301,756.048035 789.612061,758.851501 792.034241,759.032532 
	C793.985107,759.178345 797.351746,756.018921 798.098938,753.687622 
	C800.308777,746.792664 801.531982,739.581482 803.166931,731.588989 
z"/>
<path fill="#FAFAFA" opacity="1.000000" stroke="none" 
	d="
M1603.374512,645.416992 
	C1604.940552,642.439148 1606.086548,639.631104 1607.776978,637.201782 
	C1614.649414,627.324951 1626.777710,626.934265 1632.756470,637.296387 
	C1636.884644,644.451172 1639.929565,652.777100 1641.206909,660.932373 
	C1645.763794,690.028259 1646.100464,719.260132 1639.837646,748.209167 
	C1638.643677,753.728210 1635.957764,759.264954 1632.715454,763.928101 
	C1626.362183,773.065796 1614.521729,772.778442 1607.782349,763.836365 
	C1601.329834,755.274780 1599.369751,745.068726 1598.285278,734.820679 
	C1595.544922,708.924683 1595.256592,683.020996 1600.026611,657.278931 
	C1600.749512,653.377197 1602.128906,649.597168 1603.374512,645.416992 
M1628.996460,748.265869 
	C1629.696533,744.681885 1630.591309,741.123352 1631.064941,737.509705 
	C1634.019653,714.964966 1633.926636,692.336792 1631.648438,669.787354 
	C1630.809448,661.481934 1628.571777,653.136719 1625.694214,645.277527 
	C1623.513794,639.322693 1617.974121,639.502197 1614.968262,645.220703 
	C1613.145020,648.689575 1611.791016,652.579956 1611.093872,656.437805 
	C1606.322144,682.843994 1606.769409,709.420776 1609.455811,735.970886 
	C1610.081543,742.156067 1612.052856,748.309631 1614.211426,754.181274 
	C1615.017944,756.375244 1618.221313,759.202393 1620.157715,759.075928 
	C1622.478271,758.924438 1624.853271,756.142578 1626.738525,754.074890 
	C1627.887451,752.814819 1628.157715,750.753723 1628.996460,748.265869 
z"/>
<path fill="#F9F9F9" opacity="1.000000" stroke="none" 
	d="
M1234.822388,748.999756 
	C1234.822388,709.406616 1234.822388,670.313354 1234.822388,630.806152 
	C1245.351196,631.128540 1253.941406,634.610107 1260.728760,642.214111 
	C1268.639404,651.076660 1272.369873,661.806946 1274.401245,673.257568 
	C1278.199219,694.667542 1278.115356,716.004150 1271.971924,736.971069 
	C1267.959839,750.664490 1261.006470,762.376770 1246.398926,767.249939 
	C1242.875000,768.425476 1239.093750,768.830078 1234.822388,769.715332 
	C1234.822388,762.400696 1234.822388,755.950134 1234.822388,748.999756 
M1245.845703,689.499939 
	C1245.845703,711.909973 1245.845703,734.320007 1245.845703,757.273071 
	C1253.130981,754.215942 1256.308472,748.493896 1258.945190,742.352783 
	C1263.751099,731.159119 1265.133423,719.237976 1265.588623,707.268982 
	C1266.261841,689.566223 1265.260620,671.991760 1257.860718,655.466003 
	C1255.468750,650.123718 1252.233154,645.392212 1245.845703,642.771545 
	C1245.845703,658.341919 1245.845703,673.420898 1245.845703,689.499939 
z"/>
<path fill="#FCFCFC" opacity="1.000000" stroke="none" 
	d="
M916.995850,639.041443 
	C916.995850,636.083496 916.995850,633.618713 916.995850,631.204651 
	C935.671509,629.710266 951.292480,641.338440 956.262756,661.285278 
	C961.298157,681.493835 961.027283,701.406433 947.027954,718.516174 
	C942.591431,723.938354 936.559204,728.126160 930.945312,732.476440 
	C928.891357,734.068237 927.888489,735.356506 927.934753,738.016785 
	C928.108032,747.992004 928.004089,757.972046 928.004089,768.229248 
	C924.371704,768.229248 920.954041,768.229248 916.995850,768.229248 
	C916.995850,725.279846 916.995850,682.407227 916.995850,639.041443 
M946.405640,668.184204 
	C943.936218,657.282715 940.412598,647.144775 928.347778,642.690247 
	C928.347778,670.326172 928.347778,697.438110 928.347778,724.330994 
	C929.609009,723.188599 930.765015,722.100403 931.964172,721.062073 
	C940.471802,713.695374 946.169067,704.584595 947.018677,693.303772 
	C947.624939,685.253723 946.842102,677.098999 946.405640,668.184204 
z"/>
<path fill="#FAFAFA" opacity="1.000000" stroke="none" 
	d="
M1156.061279,635.048279 
	C1156.572388,632.396912 1157.020508,630.156677 1157.468628,627.916382 
	C1157.775146,627.873535 1158.081543,627.830627 1158.388062,627.787720 
	C1166.915649,674.554688 1175.443115,721.321594 1184.016602,768.340210 
	C1180.277100,768.340210 1176.972656,768.340210 1172.882935,768.340210 
	C1170.890503,757.186584 1168.864746,745.846619 1166.820312,734.401978 
	C1160.348999,734.401978 1154.085205,734.401978 1147.468018,734.401978 
	C1145.492920,745.640503 1143.545044,756.724487 1141.536499,768.152832 
	C1138.081909,768.152832 1134.678589,768.152832 1130.709717,768.152832 
	C1139.153931,723.844360 1147.576050,679.651917 1156.061279,635.048279 
M1149.056396,724.560059 
	C1154.339233,725.149048 1159.622192,725.738037 1165.574585,726.401733 
	C1162.810913,710.272095 1160.268555,695.434570 1157.726196,680.597046 
	C1157.420532,680.600159 1157.114868,680.603210 1156.809326,680.606323 
	C1154.251953,694.965637 1151.694702,709.324951 1149.056396,724.560059 
z"/>
<path fill="#FAFAFA" opacity="1.000000" stroke="none" 
	d="
M999.222168,670.652588 
	C1005.206177,703.279785 1011.109192,735.484070 1017.092102,768.124573 
	C1013.444702,768.124573 1010.065857,768.124573 1005.934937,768.124573 
	C1003.968262,757.154846 1001.933838,745.807312 999.893921,734.428955 
	C993.343933,734.428955 987.078064,734.428955 980.531799,734.428955 
	C978.556458,745.718323 976.614990,756.814453 974.622192,768.203735 
	C971.130676,768.203735 967.713623,768.203735 963.767334,768.203735 
	C972.695496,721.408081 981.592957,674.773193 990.490356,628.138367 
	C990.838196,628.108765 991.186035,628.079163 991.533813,628.049561 
	C994.069641,642.109619 996.605408,656.169617 999.222168,670.652588 
M996.219482,725.840820 
	C996.827454,724.830017 998.089172,723.713684 997.945679,722.824036 
	C995.668579,708.713257 993.211426,694.631470 990.795471,680.543091 
	C990.486145,680.538086 990.176880,680.533142 989.867554,680.528137 
	C987.242676,695.490479 984.617737,710.452820 981.917419,725.844910 
	C986.667847,725.844910 990.971619,725.844910 996.219482,725.840820 
z"/>
<path fill="#FAFAFA" opacity="1.000000" stroke="none" 
	d="
M2162.484863,714.357300 
	C2168.112549,684.930725 2173.625244,655.918213 2179.137939,626.905701 
	C2179.344971,626.918579 2179.551758,626.931396 2179.758789,626.944214 
	C2188.322754,673.965759 2196.886719,720.987305 2205.505127,768.307983 
	C2201.407471,768.307983 2197.959229,768.307983 2194.335693,768.307983 
	C2192.315674,756.890686 2190.325928,745.645081 2188.323975,734.329468 
	C2181.781738,734.329468 2175.657471,734.329468 2169.031006,734.329468 
	C2167.035645,745.547180 2165.039795,756.767029 2163.000244,768.232544 
	C2159.435303,768.232544 2156.041260,768.232544 2152.209717,768.232544 
	C2155.627197,750.250793 2158.998535,732.511047 2162.484863,714.357300 
M2170.959961,725.390869 
	C2176.199219,725.390869 2181.438721,725.390869 2186.935303,725.390869 
	C2184.331299,710.303650 2181.747559,695.332458 2179.163574,680.361206 
	C2178.857178,680.387878 2178.550537,680.414490 2178.244141,680.441162 
	C2175.721191,695.127136 2173.198242,709.813110 2170.959961,725.390869 
z"/>
<path fill="#FBFBFB" opacity="1.000000" stroke="none" 
	d="
M1796.112427,661.046143 
	C1798.918091,651.244263 1801.644409,641.841125 1804.461060,632.126831 
	C1807.586426,632.126831 1810.828735,632.126831 1814.563110,632.126831 
	C1810.443970,645.905151 1806.406372,659.396606 1802.377563,672.890564 
	C1799.244507,683.383728 1796.068604,693.864746 1793.039673,704.387878 
	C1792.407471,706.584229 1792.061035,708.940674 1792.050415,711.225525 
	C1791.970215,728.540894 1792.006470,745.856812 1792.006470,763.172546 
	C1792.006470,764.804382 1792.006470,766.436218 1792.006470,768.284973 
	C1788.199219,768.284973 1784.771606,768.284973 1780.827026,768.284973 
	C1780.827026,760.342957 1780.366699,752.536072 1780.911987,744.800110 
	C1782.656738,720.049866 1778.921997,696.283020 1770.287720,673.011475 
	C1765.397095,659.829773 1762.009521,646.090393 1757.819702,632.186401 
	C1761.638062,632.186401 1765.171387,632.186401 1769.156738,632.186401 
	C1774.836304,651.873840 1780.578247,671.777405 1786.320068,691.680969 
	C1786.647339,691.765747 1786.974609,691.850525 1787.301880,691.935303 
	C1790.212280,681.771790 1793.122681,671.608337 1796.112427,661.046143 
z"/>
<path fill="#F9F9F9" opacity="1.000000" stroke="none" 
	d="
M2015.031250,757.352661 
	C2027.259155,762.961182 2038.683228,756.911987 2040.864136,743.502380 
	C2042.510986,733.376221 2041.410645,723.528076 2036.150635,714.545288 
	C2031.285767,706.237305 2026.047729,698.148132 2020.994385,689.950012 
	C2013.501099,677.793579 2011.181885,664.686035 2014.013672,650.712280 
	C2016.634766,637.779541 2025.426025,629.887268 2037.070190,629.820801 
	C2045.216187,629.774292 2046.884155,631.416565 2046.845459,639.441833 
	C2046.840698,640.436279 2046.844727,641.430725 2046.844727,642.840088 
	C2045.751831,642.476746 2044.904175,642.227844 2044.080444,641.915894 
	C2036.105957,638.896851 2028.815796,641.912659 2025.944946,649.981934 
	C2022.185303,660.548828 2023.099731,671.123108 2028.418579,680.860291 
	C2032.945923,689.148254 2038.481323,696.885376 2043.565918,704.869324 
	C2052.508545,718.911438 2055.521484,734.001282 2050.898682,750.153015 
	C2046.953369,763.937317 2036.733032,770.919739 2022.536255,770.149841 
	C2015.388428,769.762268 2014.452148,768.766602 2014.488770,761.507202 
	C2014.495605,760.179810 2014.600098,758.853027 2015.031250,757.352661 
z"/>
<path fill="#FEFEFE" opacity="1.000000" stroke="none" 
	d="
M1308.000000,751.912781 
	C1308.000000,754.053467 1308.000000,755.706055 1308.000000,757.918213 
	C1314.185303,757.918213 1320.242676,757.918213 1326.298828,757.918213 
	C1326.298828,761.598694 1326.298828,764.715210 1326.298828,768.493408 
	C1321.356689,768.493408 1316.594971,768.493408 1311.833374,768.493408 
	C1307.023315,768.493408 1302.213257,768.493408 1297.120728,768.493408 
	C1297.120728,723.015686 1297.120728,677.787292 1297.120728,632.195557 
	C1306.144653,632.195557 1315.340576,632.195557 1324.770508,632.195557 
	C1324.770508,635.574341 1324.770508,638.976257 1324.770508,642.647766 
	C1319.300415,642.647766 1314.018921,642.647766 1308.368652,642.647766 
	C1308.368652,670.409180 1308.368652,697.904541 1308.368652,725.873291 
	C1313.683228,725.873291 1318.928101,725.873291 1324.323486,725.873291 
	C1324.323486,728.778503 1324.323486,731.211914 1324.323486,734.116699 
	C1318.936523,734.116699 1313.691650,734.116699 1308.000000,734.116699 
	C1308.000000,740.193054 1308.000000,745.808838 1308.000000,751.912781 
z"/>
<path fill="#F9F9F9" opacity="1.000000" stroke="none" 
	d="
M2139.746582,757.780701 
	C2139.835693,759.031128 2139.845459,759.863403 2139.846436,760.695679 
	C2139.856689,769.105408 2138.967041,769.855957 2130.670166,770.221252 
	C2121.891357,770.607788 2115.673828,766.395447 2112.403320,758.895630 
	C2109.320557,751.826233 2106.761963,744.241089 2105.677246,736.639587 
	C2101.826904,709.658569 2101.595215,682.579834 2107.166504,655.779968 
	C2108.482422,649.449341 2111.381104,643.167114 2114.787354,637.621582 
	C2119.203369,630.432190 2127.297119,628.170044 2135.427002,630.268738 
	C2138.590820,631.085388 2140.349609,632.651672 2139.896240,636.224670 
	C2139.626709,638.348267 2139.846680,640.534058 2139.846680,643.047852 
	C2138.677490,642.625854 2137.789062,642.323181 2136.914062,641.986633 
	C2129.474365,639.125366 2123.721191,640.846741 2121.118652,648.352478 
	C2118.375244,656.265259 2116.286133,664.645447 2115.548828,672.966553 
	C2113.579590,695.182434 2113.424805,717.465637 2117.140381,739.572754 
	C2117.847168,743.777771 2119.221436,747.977905 2120.963867,751.878235 
	C2124.212402,759.150696 2129.406982,760.989807 2136.884033,758.145813 
	C2137.780029,757.804993 2138.735107,757.619812 2139.746582,757.780701 
z"/>
<path fill="#FBFBFB" opacity="1.000000" stroke="none" 
	d="
M755.512695,636.309570 
	C755.512695,638.708801 755.512695,640.681580 755.512695,643.100769 
	C753.918945,642.509399 752.754944,642.043945 751.569092,641.643066 
	C744.985535,639.417725 739.670898,641.056641 737.196106,647.564209 
	C734.572083,654.464417 732.463562,661.799133 731.665894,669.111572 
	C729.059143,693.006592 728.937744,716.943665 733.029114,740.747498 
	C733.420227,743.023132 734.139282,745.258911 734.877563,747.455566 
	C738.846252,759.264648 743.635681,761.595703 754.981934,757.319275 
	C755.106079,757.411255 755.329651,757.493164 755.340210,757.596802 
	C756.524292,769.202209 751.032349,773.279541 739.491760,769.405701 
	C732.371094,767.015442 728.666016,761.394287 726.002747,754.936096 
	C720.709045,742.099487 719.658264,728.461365 719.181885,714.825012 
	C718.478394,694.684753 718.195557,674.495972 723.032471,654.734131 
	C724.355347,649.329346 726.523438,643.947144 729.292847,639.122437 
	C733.847412,631.187988 741.330139,628.316711 750.229492,630.138123 
	C753.280212,630.762451 756.192688,631.727905 755.512695,636.309570 
z"/>
<path fill="#EEEEEE" opacity="1.000000" stroke="none" 
	d="
M2072.137207,766.506958 
	C2072.127930,721.440369 2072.127930,676.828674 2072.127930,632.050781 
	C2076.052002,632.050781 2079.644775,632.050781 2083.321777,632.050781 
	C2083.321777,677.544800 2083.321777,722.776672 2083.321777,769.254333 
	C2079.307617,768.430908 2075.726807,767.696472 2072.137207,766.506958 
z"/>
<path fill="#FFFFFF" opacity="1.000000" stroke="none" 
	d="
M1113.999023,739.000000 
	C1113.999023,748.977356 1113.999023,758.454773 1113.999023,768.210388 
	C1110.311646,768.210388 1106.894897,768.210388 1103.156738,768.210388 
	C1103.156738,723.079529 1103.156738,677.826050 1103.156738,632.203003 
	C1106.471191,632.203003 1110.001465,632.203003 1113.999023,632.203003 
	C1113.999023,667.612732 1113.999023,703.056335 1113.999023,739.000000 
z"/>
<path fill="#FCFCFC" opacity="1.000000" stroke="none" 
	d="
M286.911652,493.997986 
	C295.936096,495.505493 301.131226,500.434967 301.956787,507.878448 
	C302.695953,514.542664 298.631470,521.416321 292.397522,523.816467 
	C286.244659,526.185364 280.567657,525.201782 275.829102,520.617554 
	C271.112854,516.054993 269.690002,510.447174 272.021515,504.213867 
	C274.496826,497.596222 279.515442,494.352020 286.911652,493.997986 
z"/>
<path fill="#F8F8F8" opacity="1.000000" stroke="none" 
	d="
M1073.474121,620.734497 
	C1067.590454,622.954407 1062.343994,621.826965 1057.158081,619.620605 
	C1054.116699,618.326660 1051.079834,616.979126 1047.940430,615.967224 
	C1041.481445,613.885315 1035.985352,615.782837 1031.356201,621.036316 
	C1030.370972,610.217285 1035.422241,605.120972 1045.572266,606.757812 
	C1049.572998,607.403015 1053.400513,609.276306 1057.232666,610.780090 
	C1064.743164,613.727478 1071.983521,615.022217 1078.217773,608.029846 
	C1080.223999,615.739624 1079.696411,617.218933 1073.474121,620.734497 
z"/>
<path fill="#F4F4F4" opacity="1.000000" stroke="none" 
	d="
M1963.223633,627.019531 
	C1961.864746,627.019470 1960.944824,627.019470 1959.068604,627.019470 
	C1965.657959,617.406433 1971.230225,608.178650 1978.066772,600.008789 
	C1979.984741,597.716492 1985.621460,598.535889 1989.552368,597.927979 
	C1989.820068,598.344971 1990.087769,598.761963 1990.355469,599.178894 
	C1989.000488,601.095764 1987.652588,603.017761 1986.289185,604.928650 
	C1982.337280,610.467102 1978.090454,615.822693 1974.518555,621.595947 
	C1971.859619,625.893982 1968.687866,628.015259 1963.223633,627.019531 
z"/>
<path fill="#070000" opacity="1.000000" stroke="none" 
	d="
M1651.050537,425.985840 
	C1632.929321,414.921143 1619.126831,400.645874 1611.999756,380.566040 
	C1605.005615,360.860687 1606.397827,341.611420 1615.573730,323.097809 
	C1628.272461,297.475983 1641.486694,272.109619 1654.519165,246.653732 
	C1655.009155,245.696442 1655.905762,244.947296 1657.030151,243.602005 
	C1661.360596,249.967682 1665.416016,255.908478 1669.449707,261.863983 
	C1674.295532,269.018402 1679.025146,276.254364 1684.006104,283.313080 
	C1686.018677,286.165314 1685.927490,287.731506 1683.051025,290.233032 
	C1665.409302,305.575378 1652.632446,323.800842 1648.782959,347.602417 
	C1644.756714,372.495636 1657.416748,395.143707 1681.237671,404.582916 
	C1696.234863,410.525665 1712.014282,411.040344 1727.782349,411.774506 
	C1728.500732,411.807953 1729.243286,411.324738 1730.280884,409.748505 
	C1727.846436,408.853180 1725.422607,407.928009 1722.975586,407.068329 
	C1716.572266,404.818604 1709.801636,403.272644 1703.870728,400.135437 
	C1699.687256,397.922546 1695.673828,394.134979 1693.266235,390.057434 
	C1686.578369,378.730621 1682.245117,366.611115 1684.781372,352.969910 
	C1687.275879,339.553467 1694.945679,329.732666 1705.576904,321.818939 
	C1708.099365,319.941132 1709.471069,321.536224 1710.813721,323.478424 
	C1716.006958,330.990326 1721.296021,338.436646 1726.431152,345.987854 
	C1738.012939,363.019348 1749.514038,380.105804 1761.070801,397.154510 
	C1765.072510,403.057831 1769.081909,408.957977 1773.207520,414.774658 
	C1775.028564,417.342255 1774.293945,419.021362 1771.885620,420.506989 
	C1756.098022,430.246246 1739.097900,436.568604 1720.651733,438.967194 
	C1702.029419,441.388702 1683.755371,440.542328 1666.192871,433.259888 
	C1661.140503,431.164917 1656.312988,428.527618 1651.050537,425.985840 
z"/>
<path fill="#060000" opacity="1.000000" stroke="none" 
	d="
M1605.631592,83.854141 
	C1610.451904,69.855743 1617.117554,57.578575 1629.306519,49.120510 
	C1639.666748,41.931347 1646.504761,43.237591 1653.526489,53.861568 
	C1659.405640,62.756664 1662.559326,72.779251 1663.659302,83.226250 
	C1665.895508,104.464676 1663.870239,125.428902 1655.915649,145.322220 
	C1652.055054,154.976639 1646.285889,163.870651 1641.330444,173.081802 
	C1640.466553,174.687836 1639.281860,176.118408 1638.365356,177.699570 
	C1633.915771,185.375580 1633.947754,185.372177 1629.053589,178.111771 
	C1620.970825,166.121170 1613.606689,153.850967 1608.574585,140.106552 
	C1601.815796,121.645279 1601.114258,103.153572 1605.631592,83.854141 
z"/>
<path fill="#070000" opacity="1.000000" stroke="none" 
	d="
M1723.812256,313.609619 
	C1734.464233,309.127380 1745.451416,307.811462 1756.282837,309.621399 
	C1765.138794,311.101196 1774.228760,313.641602 1782.141968,317.769073 
	C1796.935303,325.485260 1803.979126,339.292847 1805.881348,355.385864 
	C1808.060303,373.818420 1804.177612,390.753510 1790.881226,404.686584 
	C1787.080444,408.669250 1786.997803,408.679993 1783.845215,404.047729 
	C1772.828369,387.859650 1761.734863,371.723755 1750.662109,355.573669 
	C1742.135986,343.137848 1733.568604,330.729980 1725.109375,318.248749 
	C1724.270996,317.011566 1724.060303,315.348846 1723.812256,313.609619 
z"/>
<path fill="#010101" opacity="1.000000" stroke="none" 
	d="
M2557.202637,272.274567 
	C2577.045898,236.441910 2604.223877,208.305435 2639.801758,187.525314 
	C2639.801758,236.920395 2639.801758,285.614044 2639.801758,334.570251 
	C2604.918945,334.570251 2570.187500,334.570251 2534.987549,334.570251 
	C2539.019287,312.661011 2546.549316,292.118927 2557.202637,272.274567 
z"/>
<path fill="#000000" opacity="1.000000" stroke="none" 
	d="
M626.309082,217.703217 
	C660.901733,263.533813 664.125916,321.365021 632.782532,368.068512 
	C602.384094,413.364014 559.173462,434.359741 504.405396,427.711090 
	C445.873291,420.605469 397.496582,369.013153 391.702515,310.518494 
	C384.834015,241.176666 436.230530,176.412659 505.665161,167.353683 
	C549.930725,161.578445 587.468628,176.257187 618.299255,208.337112 
	C621.059082,211.208817 623.498779,214.388229 626.309082,217.703217 
z"/>
<path fill="#010101" opacity="1.000000" stroke="none" 
	d="
M974.827759,238.852295 
	C991.813477,218.227432 1011.411377,201.213150 1034.757568,187.732269 
	C1034.757568,236.789093 1034.757568,285.448853 1034.757568,334.469269 
	C1000.224365,334.469269 965.495544,334.469269 930.219604,334.469269 
	C937.050598,298.973053 952.034546,267.309631 974.827759,238.852295 
z"/>
<path fill="#020202" opacity="1.000000" stroke="none" 
	d="
M1350.995850,334.832703 
	C1321.049194,334.832703 1291.601440,334.832703 1262.143188,334.832703 
	C1263.681274,287.658020 1323.732910,203.489822 1366.583130,188.253967 
	C1366.583130,236.982162 1366.583130,285.658051 1366.583130,334.832703 
	C1361.396606,334.832703 1356.445679,334.832703 1350.995850,334.832703 
z"/>
<path fill="#010101" opacity="1.000000" stroke="none" 
	d="
M1692.923706,667.334595 
	C1694.904541,677.824585 1695.232910,687.909729 1692.932983,697.951233 
	C1690.463623,708.733398 1684.341553,717.008972 1674.841431,723.884460 
	C1674.841431,696.559570 1674.841431,670.041870 1674.834473,643.523560 
	C1682.821899,644.082520 1688.603516,651.577087 1692.923706,667.334595 
z"/>
<path fill="#020202" opacity="1.000000" stroke="none" 
	d="
M803.153992,732.041504 
	C801.531982,739.581482 800.308777,746.792664 798.098938,753.687622 
	C797.351746,756.018921 793.985107,759.178345 792.034241,759.032532 
	C789.612061,758.851501 786.146301,756.048035 785.363098,753.648743 
	C783.063721,746.604248 781.057617,739.272644 780.390625,731.921631 
	C778.162170,707.360107 777.961853,682.761414 782.100830,658.334045 
	C782.839600,653.974182 784.310425,649.624390 786.190247,645.620667 
	C787.105896,643.670410 789.833801,641.232666 791.578125,641.354431 
	C793.675293,641.500793 796.682922,643.752258 797.396667,645.765747 
	C799.652649,652.129639 801.805542,658.715637 802.590393,665.381470 
	C805.182800,687.397888 805.243042,709.499695 803.153992,732.041504 
z"/>
<path fill="#020202" opacity="1.000000" stroke="none" 
	d="
M1628.909546,748.659180 
	C1628.157715,750.753723 1627.887451,752.814819 1626.738525,754.074890 
	C1624.853271,756.142578 1622.478271,758.924438 1620.157715,759.075928 
	C1618.221313,759.202393 1615.017944,756.375244 1614.211426,754.181274 
	C1612.052856,748.309631 1610.081543,742.156067 1609.455811,735.970886 
	C1606.769409,709.420776 1606.322144,682.843994 1611.093872,656.437805 
	C1611.791016,652.579956 1613.145020,648.689575 1614.968262,645.220703 
	C1617.974121,639.502197 1623.513794,639.322693 1625.694214,645.277527 
	C1628.571777,653.136719 1630.809448,661.481934 1631.648438,669.787354 
	C1633.926636,692.336792 1634.019653,714.964966 1631.064941,737.509705 
	C1630.591309,741.123352 1629.696533,744.681885 1628.909546,748.659180 
z"/>
<path fill="#020202" opacity="1.000000" stroke="none" 
	d="
M1245.845703,688.999878 
	C1245.845703,673.420898 1245.845703,658.341919 1245.845703,642.771545 
	C1252.233154,645.392212 1255.468750,650.123718 1257.860718,655.466003 
	C1265.260620,671.991760 1266.261841,689.566223 1265.588623,707.268982 
	C1265.133423,719.237976 1263.751099,731.159119 1258.945190,742.352783 
	C1256.308472,748.493896 1253.130981,754.215942 1245.845703,757.273071 
	C1245.845703,734.320007 1245.845703,711.909973 1245.845703,688.999878 
z"/>
<path fill="#030303" opacity="1.000000" stroke="none" 
	d="
M946.542358,668.587646 
	C946.842102,677.098999 947.624939,685.253723 947.018677,693.303772 
	C946.169067,704.584595 940.471802,713.695374 931.964172,721.062073 
	C930.765015,722.100403 929.609009,723.188599 928.347778,724.330994 
	C928.347778,697.438110 928.347778,670.326172 928.347778,642.690247 
	C940.412598,647.144775 943.936218,657.282715 946.542358,668.587646 
z"/>
<path fill="#0A0A0A" opacity="1.000000" stroke="none" 
	d="
M1149.096924,724.122192 
	C1151.694702,709.324951 1154.251953,694.965637 1156.809326,680.606323 
	C1157.114868,680.603210 1157.420532,680.600159 1157.726196,680.597046 
	C1160.268555,695.434570 1162.810913,710.272095 1165.574585,726.401733 
	C1159.622192,725.738037 1154.339233,725.149048 1149.096924,724.122192 
z"/>
<path fill="#0A0A0A" opacity="1.000000" stroke="none" 
	d="
M995.747437,725.842896 
	C990.971619,725.844910 986.667847,725.844910 981.917419,725.844910 
	C984.617737,710.452820 987.242676,695.490479 989.867554,680.528137 
	C990.176880,680.533142 990.486145,680.538086 990.795471,680.543091 
	C993.211426,694.631470 995.668579,708.713257 997.945679,722.824036 
	C998.089172,723.713684 996.827454,724.830017 995.747437,725.842896 
z"/>
<path fill="#0A0A0A" opacity="1.000000" stroke="none" 
	d="
M2170.817627,724.945007 
	C2173.198242,709.813110 2175.721191,695.127136 2178.244141,680.441162 
	C2178.550537,680.414490 2178.857178,680.387878 2179.163574,680.361206 
	C2181.747559,695.332458 2184.331299,710.303650 2186.935303,725.390869 
	C2181.438721,725.390869 2176.199219,725.390869 2170.817627,724.945007 
z"/>
</svg>