<svg version="1.1" id="Layer_1" xmlns="http://www.w3.org/2000/svg" xmlns:xlink="http://www.w3.org/1999/xlink" x="0px" y="0px"
	 width="100%" viewBox="0 0 2700 800" enable-background="new 0 0 2700 800" xml:space="preserve">
<path fill="#FEFEFE" opacity="1.000000" stroke="none" 
	d="
M1792.000000,801.000000 
	C1196.166626,801.000000 600.833313,800.995911 5.500015,801.092773 
	C1.750990,801.093384 0.905242,800.249146 0.906701,796.499939 
	C1.009313,532.833313 1.009313,269.166656 0.906701,5.500037 
	C0.905242,1.750844 1.751026,0.906982 5.500010,0.907381 
	C902.500000,1.002741 1799.500000,1.002741 2696.500000,0.907381 
	C2700.249023,0.906982 2701.094727,1.750841 2701.093262,5.500036 
	C2700.990723,269.166656 2700.990723,532.833313 2701.093506,796.499939 
	C2701.094971,800.249146 2700.249268,801.094482 2696.500000,801.093201 
	C2395.166748,800.991882 2093.833252,801.000000 1792.000000,801.000000 
z"/>
<path fill="#F30A09" opacity="1.000000" stroke="none" 
	d="
M1776.098389,519.920898 
	C1785.115234,540.065063 1770.581909,562.873962 1751.749146,569.313599 
	C1750.254883,569.824524 1747.832031,569.559265 1747.862305,571.651672 
	C1747.896362,573.993652 1750.357910,573.970703 1752.099854,574.207458 
	C1761.036255,575.421753 1769.714844,573.876099 1778.164429,571.176575 
	C1787.541504,568.180786 1796.363525,563.896301 1804.656494,558.558472 
	C1819.635376,548.917297 1825.654419,534.379456 1826.018921,517.398376 
	C1826.403442,499.486969 1819.817383,483.696930 1809.521973,469.194672 
	C1801.546631,457.960449 1793.982178,446.427399 1786.488403,434.863007 
	C1784.289917,431.470215 1782.476440,430.832825 1778.866211,432.944061 
	C1751.243286,449.098419 1721.214355,455.764954 1689.416748,454.770508 
	C1668.747559,454.124084 1648.675781,450.011810 1630.028687,441.015320 
	C1594.975708,424.103455 1572.792969,397.077209 1568.328857,357.595917 
	C1565.516846,332.725952 1569.786987,308.601440 1578.671509,285.231964 
	C1589.908691,255.674240 1605.870850,228.656189 1623.034546,202.289398 
	C1625.161255,199.022476 1625.366577,196.643982 1623.086182,193.369720 
	C1612.741089,178.516296 1602.300659,163.714539 1593.848999,147.640076 
	C1580.724609,122.678741 1573.339233,96.607735 1576.844604,68.003044 
	C1578.600586,53.673134 1581.163086,39.755886 1588.385742,27.043112 
	C1599.407104,7.644045 1620.843994,1.989131 1640.306396,13.050903 
	C1663.191406,26.057995 1676.399658,46.598103 1684.388184,70.660278 
	C1694.622559,101.487106 1693.640625,132.844330 1686.439453,164.229980 
	C1681.993530,183.607468 1675.174438,202.140396 1666.771484,220.089569 
	C1664.037842,225.928940 1664.249512,230.285324 1668.376343,235.787186 
	C1677.925659,248.518234 1686.560303,261.942719 1695.363770,275.220001 
	C1697.394653,278.282898 1699.343506,279.305298 1702.729736,277.586639 
	C1719.264038,269.194885 1737.026978,266.338959 1755.144775,268.594055 
	C1777.798828,271.413727 1799.117310,278.282379 1814.534424,296.694397 
	C1821.687012,305.236328 1826.305908,315.276825 1828.334717,326.235138 
	C1834.710693,360.673981 1826.104858,390.803253 1801.647217,416.113159 
	C1795.919312,422.040771 1796.217163,421.614197 1800.813354,428.760071 
	C1811.853516,445.924683 1825.304321,461.548462 1834.409912,479.918365 
	C1843.606567,498.471710 1845.681274,517.821716 1837.589111,537.349854 
	C1832.578491,549.441650 1824.330200,559.267029 1813.475464,566.640381 
	C1795.019653,579.177185 1775.013672,587.514038 1752.234131,585.436523 
	C1730.847168,583.486023 1712.850464,574.687744 1701.531616,555.498901 
	C1693.721558,542.258606 1696.669312,529.655029 1705.057495,517.668091 
	C1719.000000,497.743652 1750.622192,493.960632 1768.797607,510.076477 
	C1771.845947,512.779297 1773.964966,516.105530 1776.098389,519.920898 
z"/>
<path fill="#010101" opacity="1.000000" stroke="none" 
	d="
M2518.148438,278.209839 
	C2549.135986,208.523270 2601.163574,162.351578 2672.772461,136.957565 
	C2672.849121,138.707489 2672.990234,140.423828 2672.990479,142.140198 
	C2673.001953,204.626419 2673.059082,267.112823 2672.877930,329.598480 
	C2672.864746,334.148407 2674.093750,335.260468 2678.373779,334.930420 
	C2682.645020,334.601044 2688.457275,333.417450 2690.896973,335.609802 
	C2693.746094,338.170013 2691.651123,344.065247 2691.800781,348.507507 
	C2691.958252,353.167847 2691.519287,357.865662 2691.928955,362.495087 
	C2692.316895,366.878448 2690.591064,367.939178 2686.597900,367.567932 
	C2683.128662,367.245300 2679.599609,367.627960 2676.108643,367.457031 
	C2673.758789,367.341980 2672.653320,368.006317 2672.975098,370.506134 
	C2673.122803,371.653503 2673.000000,372.835693 2673.000000,374.002106 
	C2673.000000,512.138306 2672.979492,650.274475 2673.094238,788.410583 
	C2673.097900,792.753235 2672.315186,794.387817 2667.571533,794.124573 
	C2659.431641,793.672974 2651.247314,793.924805 2643.084473,794.047485 
	C2640.793701,794.081848 2639.625977,793.593628 2639.973389,791.067322 
	C2640.130859,789.922546 2640.000000,788.738159 2640.000000,787.571777 
	C2640.000000,649.435547 2639.980713,511.299377 2640.090332,373.163239 
	C2640.093750,368.841400 2639.335449,367.338226 2634.552246,367.373840 
	C2601.728027,367.618073 2568.900879,367.563263 2536.075439,367.417114 
	C2532.253662,367.400085 2531.036865,368.238098 2531.064697,372.300018 
	C2531.258301,400.625793 2531.076172,428.954102 2531.270264,457.279877 
	C2531.297607,461.279327 2530.179688,462.230316 2526.355225,462.090851 
	C2518.201416,461.793457 2510.027100,461.908081 2501.864990,462.052795 
	C2499.229980,462.099457 2498.060303,461.667938 2498.097900,458.597168 
	C2498.513916,424.289246 2497.026855,389.945343 2499.130859,355.677002 
	C2500.772949,328.930023 2507.494385,303.236603 2518.148438,278.209839 
z"/>
<path fill="#020202" opacity="1.000000" stroke="none" 
	d="
M513.640747,133.784302 
	C556.760193,131.653732 594.584167,144.526489 627.164551,171.792847 
	C663.068054,201.840363 683.471741,240.549438 686.656555,287.374725 
	C689.609924,330.796906 676.391968,369.546906 648.417419,402.815369 
	C621.593872,434.714996 587.403259,454.484985 545.956116,460.254059 
	C494.908936,467.359406 450.049042,452.909302 411.983948,418.424652 
	C384.224915,393.276672 366.899170,361.916565 360.823822,324.817322 
	C353.095734,277.625458 364.256744,234.915939 393.532196,197.306198 
	C420.083649,163.195999 455.118500,142.639038 497.794128,135.363052 
	C502.863342,134.498779 508.049255,134.319229 513.640747,133.784302 
z"/>
<path fill="#020202" opacity="1.000000" stroke="none" 
	d="
M391.386169,118.713287 
	C380.968414,120.349716 371.096466,118.572807 361.423370,116.302109 
	C348.133270,113.182327 335.047333,109.241989 322.755096,103.059601 
	C319.457153,101.400871 316.260162,99.670036 313.630280,97.053925 
	C311.900909,95.333611 309.840790,94.445610 307.447723,94.094704 
	C304.888306,93.719398 303.660675,94.543419 303.980255,97.278442 
	C304.114746,98.429298 304.002960,99.608948 304.002960,100.775513 
	C304.002991,219.765030 303.975433,338.754578 304.112640,457.743927 
	C304.117676,462.113342 303.154358,463.319092 298.743500,463.120605 
	C289.928802,462.723938 281.081879,462.902863 272.252289,463.064453 
	C269.625153,463.112549 268.599792,462.359772 268.974457,459.740295 
	C269.114624,458.760437 268.997040,457.743713 268.997040,456.743805 
	C268.997040,337.754303 269.002258,218.764771 268.943054,99.775291 
	C268.942230,98.129913 270.089478,95.812569 267.976624,94.870819 
	C266.079193,94.025108 264.085876,94.930290 262.406921,96.217278 
	C247.046982,107.991142 228.955658,112.754585 210.438217,116.378120 
	C204.064560,117.625336 197.646713,118.644936 191.259384,119.824471 
	C184.075073,121.151176 181.789490,119.953049 179.128159,112.985802 
	C175.902939,104.542351 173.941757,95.803200 172.899460,86.809792 
	C170.671890,67.589508 173.678680,48.958626 179.028442,30.605263 
	C181.199081,23.158403 184.347656,21.228983 192.037155,22.761816 
	C205.394287,25.424438 219.039261,26.637877 231.954071,31.574167 
	C241.335770,35.160042 250.792862,38.636654 258.441467,45.192463 
	C265.265625,51.041626 272.314941,50.700123 279.907684,48.095051 
	C286.684296,45.769985 293.326385,46.267990 299.896118,48.727131 
	C303.931641,50.237682 307.588257,49.932690 311.313080,47.613712 
	C327.372559,37.615498 344.275391,29.339502 362.745117,24.945845 
	C370.802277,23.029175 379.176361,22.258617 387.456238,21.543623 
	C391.518036,21.192877 394.717957,23.342125 395.937164,27.741699 
	C401.790436,48.862911 404.111572,70.257202 400.453644,92.000298 
	C399.325958,98.703407 398.641998,105.547012 396.036835,111.973526 
	C395.011993,114.501602 393.899048,116.825737 391.386169,118.713287 
z"/>
<path fill="#010101" opacity="1.000000" stroke="none" 
	d="
M893.491699,457.712708 
	C893.491699,431.079895 893.564758,404.916595 893.474243,378.753876 
	C893.344116,341.112183 900.481812,305.011414 916.727539,270.967529 
	C945.015259,211.689072 989.440918,169.245941 1050.205566,144.052841 
	C1055.988281,141.655319 1061.752319,139.212585 1067.563477,136.774689 
	C1068.598389,138.857407 1068.144287,140.696350 1068.145142,142.459656 
	C1068.173706,204.784317 1068.215332,267.109131 1068.066650,329.433441 
	C1068.056396,333.742676 1068.907959,335.273895 1073.477417,334.966949 
	C1077.850952,334.673218 1083.783325,332.908722 1086.300537,335.783600 
	C1088.473999,338.265808 1086.947876,344.018768 1086.990723,348.326447 
	C1087.035522,352.825378 1086.598267,357.371155 1087.106567,361.812347 
	C1087.689331,366.905426 1085.682251,368.179138 1081.063354,367.570709 
	C1078.442505,367.225464 1075.713135,367.742645 1073.078735,367.453094 
	C1069.203247,367.027130 1068.043335,368.314362 1068.069702,372.339935 
	C1068.255737,400.668121 1068.069580,428.998810 1068.278442,457.326660 
	C1068.308594,461.427826 1067.033936,462.217621 1063.309204,462.083618 
	C1055.653442,461.808197 1047.970703,461.764099 1040.319458,462.097290 
	C1036.299072,462.272339 1035.013306,461.386993 1035.047729,457.049286 
	C1035.271973,428.888336 1035.065308,400.723969 1035.268799,372.562683 
	C1035.298950,368.397125 1034.279541,367.379211 1030.112427,367.403229 
	C997.284729,367.592682 964.455078,367.587677 931.627258,367.409515 
	C927.463684,367.386932 926.380981,368.468109 926.409119,372.628967 
	C926.599731,400.790436 926.440308,428.954193 926.590027,457.116150 
	C926.609985,460.866272 925.893860,462.294464 921.776245,462.109131 
	C913.627258,461.742401 905.445801,461.849030 897.286682,462.077881 
	C894.162903,462.165497 892.963623,461.235718 893.491699,457.712708 
z"/>
<path fill="#010101" opacity="1.000000" stroke="none" 
	d="
M1258.000977,399.000000 
	C1258.000977,418.999847 1257.919556,438.500366 1258.080688,457.998871 
	C1258.107788,461.271667 1257.248413,462.172180 1253.986816,462.080933 
	C1245.493530,461.843323 1236.988892,461.963074 1228.489502,462.027069 
	C1226.288086,462.043610 1224.875000,462.048981 1224.923584,458.977020 
	C1225.458008,425.162689 1223.730591,391.308472 1225.895142,357.531586 
	C1229.232056,305.458313 1248.264282,259.362915 1280.797852,218.813766 
	C1309.587524,182.930893 1346.031616,157.485062 1388.874756,141.058029 
	C1392.378906,139.714493 1396.100220,136.204910 1399.243652,137.736359 
	C1400.764771,138.477493 1399.821411,144.483734 1399.822632,148.106186 
	C1399.843506,208.439041 1399.908203,268.772125 1399.706543,329.104309 
	C1399.689819,334.099304 1401.085815,335.499359 1405.771606,334.901306 
	C1408.723633,334.524567 1411.783813,335.053802 1414.756836,334.771088 
	C1417.998657,334.462830 1418.637817,335.800720 1418.572876,338.754242 
	C1418.389526,347.083496 1418.355835,355.423584 1418.585205,363.750549 
	C1418.674805,367.003174 1417.474487,367.746735 1414.535767,367.560638 
	C1411.049805,367.339844 1407.512817,367.776550 1404.046265,367.436005 
	C1400.355835,367.073425 1399.748169,368.569519 1399.763428,371.912445 
	C1399.893311,400.411621 1399.764771,428.912079 1399.928711,457.410889 
	C1399.949829,461.093231 1399.149170,462.253265 1395.319946,462.100403 
	C1387.166382,461.774963 1378.985596,461.832397 1370.826782,462.083344 
	C1367.514038,462.185242 1366.741577,461.191010 1366.756226,457.964233 
	C1366.885254,429.465057 1366.763184,400.964661 1366.912720,372.465698 
	C1366.932495,368.684052 1366.155640,367.385376 1362.052246,367.407623 
	C1328.720093,367.588074 1295.386475,367.554047 1262.053833,367.437988 
	C1258.852295,367.426849 1257.827515,368.170593 1257.917725,371.502045 
	C1258.161255,380.495514 1258.001099,389.499939 1258.000977,399.000000 
z"/>
<path fill="#000000" opacity="1.000000" stroke="none" 
	d="
M2124.000244,228.000000 
	C2124.000244,197.672882 2124.075439,167.845322 2123.905029,138.019180 
	C2123.883789,134.285080 2124.756592,133.243469 2128.523438,133.401138 
	C2136.341553,133.728363 2144.196777,133.780045 2152.008789,133.388184 
	C2156.260498,133.174927 2157.106934,134.457840 2157.099609,138.553162 
	C2156.962891,213.537308 2156.957520,288.521820 2157.049561,363.506073 
	C2157.062012,373.643707 2156.074463,383.838318 2157.900391,393.922241 
	C2161.780518,415.349731 2181.102783,430.223145 2203.362793,428.991211 
	C2223.884277,427.855499 2241.595215,409.844391 2242.829102,388.825043 
	C2242.965820,386.498871 2242.993652,384.163635 2242.993896,381.832581 
	C2243.001709,300.849457 2243.030762,219.866272 2242.910645,138.883316 
	C2242.904541,134.770767 2243.485107,133.082184 2248.163574,133.369339 
	C2255.965820,133.848206 2263.822754,133.641571 2271.648682,133.430649 
	C2274.766846,133.346634 2275.565430,134.344009 2275.562500,137.389832 
	C2275.483643,220.872375 2275.822021,304.356842 2275.353760,387.836823 
	C2275.126709,428.279022 2241.086426,461.664581 2201.379883,461.999420 
	C2159.757568,462.350372 2125.278809,430.420593 2124.361084,388.958252 
	C2123.421143,346.488403 2124.052490,303.983704 2124.002441,261.494263 
	C2123.989258,250.496185 2124.000244,239.498093 2124.000244,228.000000 
z"/>
<path fill="#010101" opacity="1.000000" stroke="none" 
	d="
M2363.956543,430.064514 
	C2327.700195,402.568695 2305.026611,366.823151 2298.378418,322.149170 
	C2290.808350,271.278839 2305.024658,226.208481 2339.352783,187.948486 
	C2367.243896,156.862732 2402.403564,139.149994 2443.890869,134.266403 
	C2449.125000,133.650269 2455.843018,131.274170 2459.403564,134.250320 
	C2462.781494,137.074097 2460.253418,143.959824 2460.468750,149.051483 
	C2460.658691,153.543259 2460.328369,158.059128 2460.570801,162.545837 
	C2460.729492,165.483917 2459.585938,166.131927 2456.875977,166.219147 
	C2427.246826,167.172775 2400.944092,177.222961 2378.107910,195.990524 
	C2331.159180,234.574707 2316.389648,296.735260 2340.097656,349.549744 
	C2359.453613,392.667511 2392.799316,418.636017 2439.362549,427.509003 
	C2442.981445,428.198547 2444.165771,427.840820 2444.105713,423.711487 
	C2443.853760,406.382477 2443.897705,389.046631 2444.083496,371.715973 
	C2444.121582,368.178009 2443.092529,367.356018 2439.660889,367.421814 
	C2427.832520,367.648529 2415.995850,367.422516 2404.164795,367.567627 
	C2401.115723,367.605011 2399.777344,367.105438 2399.902832,363.557068 
	C2400.203125,355.068024 2400.108398,346.558929 2399.935303,338.062805 
	C2399.880859,335.381134 2400.721680,334.763947 2403.298340,334.774506 
	C2426.796875,334.870667 2450.296387,334.864502 2473.795166,334.781006 
	C2476.280762,334.772186 2477.237061,335.249115 2477.230713,338.016724 
	C2477.139893,378.348267 2477.147949,418.680145 2477.220947,459.011780 
	C2477.225586,461.451141 2476.465820,461.956970 2474.130127,462.062378 
	C2433.895996,463.878143 2396.973877,454.361542 2363.956543,430.064514 
z"/>
<path fill="#020202" opacity="1.000000" stroke="none" 
	d="
M797.823486,151.854950 
	C819.864380,140.330444 843.009888,134.523590 867.444763,133.407028 
	C871.773865,133.209213 873.213806,134.244812 872.959412,138.804138 
	C872.523926,146.609619 872.741089,154.458893 872.893555,162.285690 
	C872.944580,164.903473 872.468506,166.130371 869.476074,166.221725 
	C835.186829,167.268448 805.605164,179.912430 781.274658,203.867889 
	C751.187500,233.491257 736.868347,269.663330 741.857178,311.859833 
	C748.675842,369.533081 789.754333,413.838959 846.211182,426.343994 
	C853.691406,428.000854 861.287720,429.139557 868.973633,428.929993 
	C872.061890,428.845795 872.974609,429.803894 872.905579,432.869629 
	C872.714539,441.361450 872.662354,449.865967 872.927795,458.353790 
	C873.032776,461.710266 871.710388,462.118469 868.885376,462.047363 
	C838.751038,461.288666 810.779907,453.038116 785.544189,436.685638 
	C741.869019,408.384521 715.586609,368.363708 709.412598,316.559509 
	C703.483215,266.808167 718.983093,223.372772 752.532593,186.365585 
	C765.383057,172.190643 780.523682,160.872589 797.823486,151.854950 
z"/>
<path fill="#000000" opacity="1.000000" stroke="none" 
	d="
M2011.001221,220.933014 
	C2011.001221,192.778122 2011.091431,165.115952 2010.897095,137.455780 
	C2010.869995,133.611603 2011.932983,132.893173 2015.560425,132.912735 
	C2044.887451,133.070801 2074.216309,133.086639 2103.542969,132.897781 
	C2107.382812,132.873062 2108.221680,133.912476 2108.090576,137.560318 
	C2107.797852,145.714951 2107.815430,153.893433 2108.086670,162.049561 
	C2108.199219,165.440659 2107.079590,166.094238 2103.932129,166.069656 
	C2085.436523,165.925171 2066.937744,166.130814 2048.444336,165.891129 
	C2044.577026,165.841003 2043.868530,166.954071 2043.909058,170.566849 
	C2044.107056,188.228012 2044.136230,205.894531 2043.891113,223.554520 
	C2043.837402,227.420502 2044.947266,228.163544 2048.566406,228.092331 
	C2060.726074,227.853058 2072.896240,228.139359 2085.056152,227.912399 
	C2088.450195,227.849045 2089.150391,228.927734 2089.070312,232.073730 
	C2088.858154,240.400116 2088.812988,248.741623 2089.088379,257.064301 
	C2089.201416,260.483826 2088.041016,261.113403 2084.917480,261.069061 
	C2072.755371,260.896362 2060.584717,261.191071 2048.427734,260.887543 
	C2044.515991,260.789917 2043.910522,262.013275 2043.916870,265.583832 
	C2044.029541,329.238495 2043.941406,392.893555 2044.117188,456.547943 
	C2044.130005,461.193695 2042.861084,462.317261 2038.432251,462.101807 
	C2030.785034,461.729767 2023.094727,461.742279 2015.446533,462.104889 
	C2011.551636,462.289612 2010.911011,461.025452 2010.917480,457.427094 
	C2011.033203,393.772430 2010.945312,330.117371 2011.117798,266.462952 
	C2011.130249,261.848175 2009.906372,260.723267 2005.451172,260.889984 
	C1996.010498,261.243347 1996.001343,260.995636 1996.001343,251.443665 
	C1996.001343,244.778229 1996.154663,238.107651 1995.930908,231.449738 
	C1995.832520,228.521957 1996.824219,227.646790 1999.570923,227.966339 
	C2001.215088,228.157608 2002.899658,228.001373 2004.566040,228.001328 
	C2011.000488,228.001160 2011.000488,228.001160 2011.001221,220.933014 
z"/>
<path fill="#030303" opacity="1.000000" stroke="none" 
	d="
M1223.172607,156.972885 
	C1223.172607,166.003815 1223.172607,166.003906 1214.682861,166.003937 
	C1204.521118,166.003983 1194.353149,166.212692 1184.200806,165.903107 
	C1180.024048,165.775742 1178.707397,166.573639 1178.715576,171.173111 
	C1178.883179,265.959625 1178.841919,360.746521 1178.842041,455.533325 
	C1178.842041,462.003784 1178.842407,462.003845 1172.214600,462.003906 
	C1165.051392,462.003998 1157.878296,461.778137 1150.729248,462.096558 
	C1146.996948,462.262756 1146.050049,461.250183 1146.064087,457.470093 
	C1146.216309,416.657379 1146.158691,375.843842 1146.158569,335.030548 
	C1146.158569,280.390686 1146.112427,225.750717 1146.253418,171.111237 
	C1146.263672,167.120071 1145.582031,165.749802 1141.235474,165.882553 
	C1129.585327,166.238388 1117.911743,165.800156 1106.259277,166.116684 
	C1102.318481,166.223740 1101.620728,164.974808 1101.742310,161.401917 
	C1102.014160,153.415085 1101.953125,145.409653 1101.761841,137.418152 
	C1101.691040,134.462051 1102.329834,133.400604 1105.563232,133.410538 
	C1143.544189,133.527451 1181.525879,133.531296 1219.506836,133.405472 
	C1222.853760,133.394394 1223.310303,134.644501 1223.229126,137.487137 
	C1223.048218,143.812195 1223.172607,150.145996 1223.172607,156.972885 
z"/>
<path fill="#6C6C6C" opacity="1.000000" stroke="none" 
	d="
M286.210449,665.627686 
	C287.405365,671.609619 290.090271,676.670105 292.316162,681.800415 
	C301.803162,703.666504 307.521057,726.887939 316.772827,748.813477 
	C322.003174,761.208862 327.593414,773.452209 333.013855,785.767456 
	C334.062958,788.151001 336.412384,791.638489 334.800110,792.951721 
	C332.438049,794.875427 330.196503,791.374390 328.394867,789.724792 
	C316.974457,779.268066 307.392578,767.123047 297.420044,755.349304 
	C288.347321,744.637878 280.272400,733.152893 271.850739,721.932312 
	C253.059601,696.895874 235.712204,670.818054 216.580276,646.021179 
	C210.048492,637.555359 204.914185,628.005920 199.206680,618.910583 
	C187.919739,600.924072 176.264648,583.190308 166.238205,564.400879 
	C160.412766,553.484070 152.754623,543.533691 145.761002,533.257507 
	C143.122177,529.380127 141.275970,525.162109 139.358429,520.942749 
	C138.190811,518.373535 137.177673,515.665405 135.594131,513.364563 
	C121.256378,492.531860 110.680809,469.592987 98.355026,447.633911 
	C90.499794,433.639374 82.176216,419.890656 74.588654,405.732483 
	C66.069260,389.835571 57.743259,373.855225 50.187202,357.452637 
	C41.559040,338.722717 32.194099,320.331146 23.083313,301.825043 
	C19.238005,294.014374 17.231607,285.544952 14.105306,277.479980 
	C12.653543,273.734833 15.403757,271.901337 17.693483,270.094635 
	C23.038050,265.877502 29.139198,262.708679 34.215569,258.084717 
	C46.001202,247.349426 58.992386,238.023331 70.581917,227.050369 
	C73.988022,223.825455 73.700043,221.385651 69.639565,217.724197 
	C58.907406,208.046722 46.857296,200.125259 35.197216,191.686630 
	C29.673164,187.688766 24.052513,183.816742 18.363918,180.056702 
	C14.885283,177.757416 14.393237,175.521317 17.507212,172.500092 
	C38.885326,151.758789 60.946789,131.811386 85.565727,114.926094 
	C98.302872,106.190125 111.326805,97.871895 124.234467,89.385155 
	C129.010696,86.244804 130.672455,86.664322 131.690918,92.344513 
	C134.156342,106.094597 136.003189,119.954880 138.413528,133.715714 
	C141.512451,151.407715 144.997757,169.031693 148.172516,186.710831 
	C152.289734,209.638107 158.005798,232.220276 162.750549,255.012115 
	C166.645889,273.723816 170.497833,292.438721 175.551880,310.904083 
	C180.819626,330.150238 184.410522,349.802460 188.597260,369.310028 
	C190.578766,378.542572 193.949432,387.471893 196.568787,396.573700 
	C201.767319,414.637634 207.776947,432.496277 212.722244,450.578613 
	C217.301147,467.321106 223.487457,483.411957 228.826172,499.830505 
	C235.458344,520.226868 242.225067,540.581909 249.063019,560.912598 
	C257.385315,585.656555 266.625214,610.063599 275.092804,634.748474 
	C278.599731,644.971985 282.415375,655.089600 286.210449,665.627686 
z"/>
<path fill="#030303" opacity="1.000000" stroke="none" 
	d="
M1895.906006,710.731262 
	C1904.526611,683.035767 1913.056763,655.720886 1921.586914,628.406067 
	C1921.894043,628.462341 1922.201050,628.518677 1922.508057,628.574951 
	C1922.508057,629.972107 1922.508057,631.369324 1922.508057,632.766479 
	C1922.507446,676.093628 1922.507080,719.420837 1922.505127,762.747986 
	C1922.504883,767.966858 1918.768066,770.484619 1914.049683,768.437439 
	C1911.864136,767.489136 1912.886597,765.527893 1912.881836,764.061646 
	C1912.809937,741.898376 1912.831909,719.734802 1912.831787,697.571289 
	C1912.831787,695.942139 1912.831665,694.312927 1912.831665,692.683777 
	C1912.489258,692.586975 1912.146973,692.490173 1911.804565,692.393372 
	C1905.939087,710.640076 1900.073730,728.886780 1893.809326,748.374512 
	C1887.674438,728.823975 1881.981079,710.679993 1876.185547,692.210999 
	C1874.636230,693.449707 1875.202515,694.812134 1875.200562,695.919250 
	C1875.159668,718.582642 1875.075928,741.246826 1875.262573,763.908691 
	C1875.293335,767.642578 1874.403931,768.797852 1870.602295,768.629578 
	C1867.152832,768.476929 1865.356689,768.327637 1865.375610,763.898132 
	C1865.568237,718.804626 1865.493530,673.709961 1866.390869,628.394043 
	C1875.361084,657.445679 1884.331177,686.497375 1893.326904,715.631592 
	C1895.599976,714.817749 1894.774536,712.452393 1895.906006,710.731262 
z"/>
<path fill="#050505" opacity="1.000000" stroke="none" 
	d="
M893.008789,657.000000 
	C893.008850,692.989685 892.940002,728.479675 893.108887,763.968567 
	C893.127014,767.775635 892.179565,768.893494 888.440308,768.611145 
	C885.302368,768.374207 882.961243,768.890503 883.020630,764.102905 
	C883.315918,740.286377 883.155518,716.464233 882.275757,692.415588 
	C876.404419,710.736755 870.533020,729.057922 864.331665,748.408875 
	C858.290588,729.195435 852.538818,710.902222 846.650757,692.175476 
	C845.401428,693.983276 845.871033,695.578186 845.868774,697.040222 
	C845.834656,719.367004 845.681580,741.695984 845.977417,764.018921 
	C846.039001,768.669250 843.918030,768.461182 840.644226,768.615845 
	C837.069275,768.784729 835.873230,767.989929 835.887390,764.053833 
	C836.050598,718.738647 835.991516,673.422791 836.738831,627.918274 
	C845.804443,657.247437 854.870117,686.576599 864.329346,717.179016 
	C873.890381,686.588257 883.030029,657.345581 892.169739,628.102905 
	C892.449463,628.111023 892.729126,628.119141 893.008789,628.127258 
	C893.008789,637.584839 893.008789,647.042419 893.008789,657.000000 
z"/>
<path fill="#050505" opacity="1.000000" stroke="none" 
	d="
M1575.844604,708.000122 
	C1575.844360,726.990356 1575.657471,745.483887 1575.976318,763.968628 
	C1576.055176,768.541626 1574.047607,768.514404 1570.693481,768.615723 
	C1567.219238,768.720703 1565.837524,768.134460 1565.879517,764.106384 
	C1566.112427,741.787231 1565.991089,719.464355 1565.991089,697.142761 
	C1565.991089,695.567383 1565.990967,693.992065 1565.990967,692.416687 
	C1565.661499,692.351379 1565.332031,692.286133 1565.002563,692.220886 
	C1559.176270,710.411560 1553.349854,728.602234 1547.523560,746.792908 
	C1547.204834,746.853516 1546.885986,746.914124 1546.567261,746.974731 
	C1540.912476,729.023010 1535.257690,711.071228 1529.431763,692.576172 
	C1528.037354,694.920654 1528.549194,696.753540 1528.545776,698.484192 
	C1528.503906,720.472534 1528.415771,742.461914 1528.614746,764.448547 
	C1528.650513,768.398071 1526.932251,768.799927 1523.857056,768.546021 
	C1521.365479,768.340271 1518.708862,769.476624 1518.726440,764.892151 
	C1518.898071,719.916565 1518.841797,674.940186 1518.858765,629.963989 
	C1518.858887,629.639343 1518.979004,629.314636 1519.314697,627.611816 
	C1528.613403,657.702332 1537.548462,686.616089 1546.483398,715.529907 
	C1546.817871,715.545288 1547.152344,715.560608 1547.486816,715.575928 
	C1556.687500,686.177673 1565.888062,656.779419 1575.088745,627.381165 
	C1575.340698,627.452026 1575.592651,627.522888 1575.844604,627.593750 
	C1575.844604,654.229187 1575.844604,680.864624 1575.844604,708.000122 
z"/>
<path fill="#070707" opacity="1.000000" stroke="none" 
	d="
M1676.778931,736.873840 
	C1675.982422,736.195801 1675.827148,734.097351 1674.765747,735.814819 
	C1674.232544,736.677429 1674.532471,738.081665 1674.530273,739.241089 
	C1674.516113,746.736389 1674.523193,754.231750 1674.522095,761.727051 
	C1674.521240,768.208557 1671.381104,770.418457 1665.088135,768.521362 
	C1662.619019,767.776917 1663.530762,765.865356 1663.519653,764.413025 
	C1663.441162,754.086792 1663.477539,743.759583 1663.477539,733.432739 
	C1663.477539,700.786499 1663.559570,668.139832 1663.376099,635.494629 
	C1663.352539,631.308411 1664.647949,630.490173 1668.462402,630.936951 
	C1684.939819,632.867065 1696.319702,641.426392 1701.769531,657.049561 
	C1706.649292,671.039001 1706.806519,685.440369 1703.366699,699.830627 
	C1700.668823,711.116150 1694.158081,720.001831 1685.251221,727.158264 
	C1682.999878,728.967163 1682.487183,730.120728 1684.328979,732.616516 
	C1694.134277,745.903748 1704.491455,758.616760 1718.658936,767.778503 
	C1706.317261,770.829224 1700.289429,769.030151 1692.496216,759.811523 
	C1686.575073,752.807434 1681.624390,745.114990 1676.778931,736.873840 
z"/>
<path fill="#020202" opacity="1.000000" stroke="none" 
	d="
M1043.018188,650.954529 
	C1051.011108,673.312744 1058.921387,695.286255 1066.831787,717.259766 
	C1067.166016,717.242065 1067.500244,717.224304 1067.834473,717.206604 
	C1067.834473,715.855957 1067.834473,714.505371 1067.834473,713.154724 
	C1067.834229,687.332581 1067.915771,661.509888 1067.739136,635.688965 
	C1067.714600,632.105225 1069.108276,631.239746 1072.018799,631.886169 
	C1074.320190,632.397156 1078.245605,629.565002 1078.230713,635.246460 
	C1078.111816,680.559814 1078.159058,725.873596 1078.146240,771.187256 
	C1078.146118,771.511414 1078.021240,771.835571 1077.680298,773.494873 
	C1066.720947,744.188110 1056.164185,715.957703 1045.607300,687.727295 
	C1045.239258,687.747131 1044.871094,687.766968 1044.503052,687.786804 
	C1044.503052,689.461121 1044.503052,691.135437 1044.503052,692.809753 
	C1044.503052,716.466187 1044.347290,740.124451 1044.632690,763.777405 
	C1044.690796,768.596130 1042.570801,768.672180 1039.010864,768.580627 
	C1035.764526,768.497192 1033.675537,768.696472 1033.699219,764.024170 
	C1033.924072,719.544556 1033.834106,675.063416 1033.834717,630.582703 
	C1033.834839,629.757019 1033.834717,628.931335 1033.834717,628.105652 
	C1034.115845,628.020081 1034.396851,627.934509 1034.677979,627.848938 
	C1037.430542,635.422546 1040.183105,642.996216 1043.018188,650.954529 
z"/>
<path fill="#060606" opacity="1.000000" stroke="none" 
	d="
M1489.772949,759.623596 
	C1485.088989,768.091431 1477.947144,771.001892 1469.042236,770.014160 
	C1460.694214,769.088257 1455.736816,763.970947 1452.789429,756.407166 
	C1449.410400,747.735229 1448.269531,738.653931 1448.219238,729.497498 
	C1448.049072,698.507324 1448.324829,667.513916 1447.996460,636.526306 
	C1447.937622,630.969116 1450.838867,631.970459 1454.093018,631.763306 
	C1457.718628,631.532593 1459.688721,631.810242 1459.648315,636.566162 
	C1459.393188,666.555359 1459.471924,696.547913 1459.550903,726.539124 
	C1459.571411,734.357666 1459.830566,742.198853 1462.088745,749.784485 
	C1463.050293,753.014404 1464.439819,756.045105 1467.533081,757.846863 
	C1472.118774,760.518066 1477.373779,758.857605 1480.164429,753.735229 
	C1483.107788,748.332397 1483.750122,742.334290 1483.955811,736.349854 
	C1485.089111,703.376038 1484.195679,670.388733 1484.532349,637.409180 
	C1484.550903,635.594666 1483.336792,632.690491 1485.620850,632.130615 
	C1488.590088,631.402893 1491.896606,631.829590 1495.027832,632.103821 
	C1496.158203,632.202759 1495.845947,633.735413 1495.833374,634.679077 
	C1495.361938,669.818542 1496.945312,704.978271 1494.923828,740.098267 
	C1494.541138,746.743591 1492.834229,753.213745 1489.772949,759.623596 
z"/>
<path fill="#050505" opacity="1.000000" stroke="none" 
	d="
M1413.155396,658.999878 
	C1413.155396,651.005859 1413.284302,643.508606 1413.093140,636.019470 
	C1413.014771,632.945190 1413.604858,631.239441 1417.108521,631.787964 
	C1418.408936,631.991516 1419.790283,631.977295 1421.095825,631.790283 
	C1424.287354,631.333130 1424.916138,632.738525 1424.909546,635.722412 
	C1424.814575,678.687805 1424.813477,721.653442 1424.912231,764.618774 
	C1424.919189,767.666382 1424.143799,768.947083 1421.032227,768.545959 
	C1419.721802,768.377075 1418.355469,768.387024 1417.042480,768.546326 
	C1414.040771,768.910522 1413.000244,767.861389 1413.079590,764.693604 
	C1413.300537,755.872864 1412.995605,747.038635 1413.237549,738.218994 
	C1413.329590,734.864502 1412.288330,733.917053 1409.048218,734.109253 
	C1404.567627,734.374878 1400.051147,734.339966 1395.565918,734.116516 
	C1392.729126,733.975281 1391.889893,734.882446 1391.945435,737.720703 
	C1392.118286,746.543640 1391.837891,755.376953 1392.093140,764.195862 
	C1392.193970,767.683044 1391.241943,768.724731 1387.716553,768.606384 
	C1380.832031,768.375427 1380.824707,768.589050 1380.824707,761.755493 
	C1380.824707,720.288757 1380.809204,678.822021 1380.876587,637.355347 
	C1380.879639,635.544067 1379.691162,632.633362 1381.892700,632.073914 
	C1384.861084,631.319763 1388.240723,631.514160 1391.299927,632.079895 
	C1392.750977,632.348267 1391.975464,634.754883 1391.977539,636.173218 
	C1392.019409,664.150757 1392.154785,692.129761 1391.872559,720.104492 
	C1391.822388,725.074768 1393.191772,726.446533 1397.899414,725.903870 
	C1401.515137,725.487122 1405.239258,725.572510 1408.874878,725.891602 
	C1412.469727,726.207092 1413.258789,724.867920 1413.233032,721.449646 
	C1413.077026,700.800781 1413.155396,680.150024 1413.155396,658.999878 
z"/>
<path fill="#030303" opacity="1.000000" stroke="none" 
	d="
M1982.160645,666.999878 
	C1982.160767,656.340637 1982.263306,646.179749 1982.098877,636.023132 
	C1982.049194,632.954956 1982.604614,631.645630 1986.112305,631.727905 
	C1993.502930,631.901306 1993.508789,631.677856 1993.508911,639.088440 
	C1993.509155,668.233765 1993.577515,697.379395 1993.472168,726.524353 
	C1993.434204,737.025635 1992.664551,747.487366 1988.559692,757.357666 
	C1984.018433,768.277222 1973.427734,772.945190 1962.334106,768.991577 
	C1956.606323,766.950256 1953.133423,762.691956 1950.891113,757.233765 
	C1947.358398,748.634644 1946.085938,739.577271 1946.046875,730.402710 
	C1945.912842,698.926331 1946.063843,667.448608 1945.902832,635.972473 
	C1945.884033,632.307312 1947.042358,631.633118 1950.375854,631.744995 
	C1957.164062,631.972717 1957.170410,631.782410 1957.170410,638.576111 
	C1957.170410,667.721436 1957.144531,696.866882 1957.189941,726.012146 
	C1957.200317,732.666016 1957.633179,739.305725 1958.915161,745.857178 
	C1959.201538,747.321045 1959.536377,748.788147 1960.007202,750.200928 
	C1962.046021,756.317383 1965.275879,759.139404 1970.015503,758.988342 
	C1975.721436,758.806519 1978.049316,754.787415 1979.491211,750.168945 
	C1982.051147,741.968933 1982.123047,733.445557 1982.145142,724.958008 
	C1982.195068,705.805420 1982.160645,686.652649 1982.160645,666.999878 
z"/>
<path fill="#060606" opacity="1.000000" stroke="none" 
	d="
M791.944580,629.990417 
	C799.468628,630.220154 803.351196,634.878357 806.436401,640.438538 
	C810.954346,648.580872 812.727783,657.601135 813.780518,666.670837 
	C816.649780,691.390320 816.816467,716.127258 812.972046,740.787781 
	C811.841736,748.038330 809.902954,755.066711 806.049744,761.418884 
	C798.628479,773.653259 785.095154,773.752808 777.573242,761.550537 
	C771.923340,752.385010 770.222473,741.976440 769.266418,731.559082 
	C767.040955,707.310852 766.836792,683.054382 771.058777,658.952087 
	C772.440857,651.061707 774.618042,643.383789 779.435181,636.773376 
	C782.403625,632.699890 786.174988,629.898438 791.944580,629.990417 
z"/>
<path fill="#050505" opacity="1.000000" stroke="none" 
	d="
M1640.382935,655.586487 
	C1645.691895,686.758057 1646.129883,717.515686 1639.956177,748.201965 
	C1638.805908,753.919067 1636.517090,759.314392 1632.881714,763.999390 
	C1626.044434,772.810486 1614.550415,772.796204 1607.806885,763.870361 
	C1601.345703,755.318176 1599.380981,745.115173 1598.291992,734.869263 
	C1595.540039,708.979797 1595.274536,683.085388 1599.991455,657.340881 
	C1601.286621,650.271729 1603.420654,643.454834 1607.542358,637.451355 
	C1614.504761,627.309937 1626.046265,627.244812 1633.077881,637.289673 
	C1636.856323,642.687317 1638.905518,648.802551 1640.382935,655.586487 
z"/>
<path fill="#060606" opacity="1.000000" stroke="none" 
	d="
M1234.823120,728.999878 
	C1234.823120,697.527039 1234.936035,666.553406 1234.701050,635.582336 
	C1234.665894,630.944885 1236.227051,630.407593 1240.092529,631.076172 
	C1254.422852,633.554749 1263.329834,642.463745 1269.028931,655.193481 
	C1274.347778,667.073364 1276.038452,679.752075 1276.631714,692.578857 
	C1277.427979,709.800049 1276.340576,726.885071 1269.861450,743.087830 
	C1264.519775,756.446472 1255.661377,766.207092 1240.640625,768.879700 
	C1236.445190,769.626160 1234.481812,769.149780 1234.683716,763.964233 
	C1235.130493,752.491699 1234.822998,740.989868 1234.823120,728.999878 
z"/>
<path fill="#030303" opacity="1.000000" stroke="none" 
	d="
M921.151611,768.507935 
	C918.105286,768.854614 916.919495,768.174561 916.926697,765.107117 
	C917.029114,721.493896 917.023376,677.880249 916.935669,634.266968 
	C916.929871,631.386902 917.690674,630.683838 920.563477,630.825378 
	C937.691162,631.669617 951.455994,642.538147 955.973816,660.128601 
	C961.248108,680.664307 961.047058,700.679871 947.274658,718.486084 
	C942.852112,724.203979 937.340210,728.785522 931.120972,732.400574 
	C928.609863,733.860107 927.879883,735.565674 927.941284,738.340942 
	C928.118164,746.327209 927.609253,754.346436 928.140625,762.301147 
	C928.503235,767.730042 926.581604,769.378906 921.151611,768.507935 
z"/>
<path fill="#050505" opacity="1.000000" stroke="none" 
	d="
M1168.954834,746.148926 
	C1168.143677,741.995667 1168.573608,736.666565 1166.297729,734.972168 
	C1163.683716,733.026123 1158.673462,734.222717 1154.703125,734.191101 
	C1147.380493,734.132751 1147.384521,734.175110 1146.164795,741.290833 
	C1144.788940,749.317993 1143.513306,757.364502 1141.988159,765.363342 
	C1140.796143,771.615417 1135.788818,768.101746 1132.696167,768.270752 
	C1129.195190,768.461914 1131.335815,765.280823 1131.617554,763.787170 
	C1140.146851,718.559143 1148.780640,673.350830 1157.410889,628.072693 
	C1158.769043,628.048767 1158.722656,629.152954 1158.878296,630.010986 
	C1167.027344,674.977722 1175.119751,719.954834 1183.402588,764.896851 
	C1183.972412,767.988647 1183.446289,768.556152 1180.509644,768.579590 
	C1173.051392,768.638977 1173.024902,768.769470 1171.619019,761.297058 
	C1170.697632,756.400146 1169.869873,751.485718 1168.954834,746.148926 
z"/>
<path fill="#050505" opacity="1.000000" stroke="none" 
	d="
M2154.837891,754.667847 
	C2162.979492,711.820068 2171.052246,669.396545 2179.125000,626.973022 
	C2179.328857,626.976257 2179.532715,626.979553 2179.736572,626.982788 
	C2184.151855,651.102417 2188.571045,675.221313 2192.981445,699.341858 
	C2196.865723,720.585693 2200.789062,741.822693 2204.526123,763.092407 
	C2204.828125,764.811218 2207.284912,768.440186 2203.100098,768.278870 
	C2199.978271,768.158447 2194.821045,771.735901 2193.731201,764.892700 
	C2192.294189,755.869324 2190.466553,746.907166 2189.091797,737.875366 
	C2188.645508,734.942566 2187.568848,733.928528 2184.631348,734.115051 
	C2180.817139,734.357117 2176.947754,734.459473 2173.154053,734.090637 
	C2169.635498,733.748657 2168.595947,735.261108 2168.125977,738.395752 
	C2166.820557,747.099731 2165.351807,755.782349 2163.726074,764.431763 
	C2163.467773,765.806824 2164.044922,768.275513 2161.689209,768.418823 
	C2158.732666,768.598694 2155.725830,768.413757 2152.782227,768.050110 
	C2151.968750,767.949707 2152.547607,766.641785 2152.704102,765.854553 
	C2153.417236,762.271973 2154.085205,758.680359 2154.837891,754.667847 
z"/>
<path fill="#050505" opacity="1.000000" stroke="none" 
	d="
M980.754089,679.609375 
	C984.031982,662.256287 987.218994,645.321228 990.406067,628.386230 
	C990.752136,628.350952 991.098267,628.315735 991.444397,628.280457 
	C992.583374,634.120850 993.788208,639.949280 994.850708,645.803589 
	C1002.028748,685.354614 1009.117126,724.922119 1016.435547,764.447083 
	C1017.095032,768.008850 1016.352478,768.646912 1013.014832,768.586548 
	C1006.058289,768.460632 1006.047058,768.625732 1004.836304,761.729492 
	C1003.487000,754.043762 1002.083130,746.366516 1000.849487,738.662109 
	C1000.345093,735.512329 999.449829,733.450317 995.572693,734.098328 
	C993.143677,734.504333 990.591553,734.174072 988.094666,734.174133 
	C980.394897,734.174316 980.415466,734.177795 979.111877,741.934265 
	C977.873047,749.305603 976.623901,756.675781 975.304443,764.032959 
	C974.530273,768.349731 971.245850,770.002686 965.699280,768.429199 
	C961.932373,767.360657 964.634338,764.552368 964.963501,762.782715 
	C970.098328,735.179321 975.399963,707.606995 980.754089,679.609375 
z"/>
<path fill="#040404" opacity="1.000000" stroke="none" 
	d="
M1812.701904,638.576782 
	C1806.081787,660.580383 1799.605835,682.192993 1793.104248,703.797852 
	C1792.331665,706.365112 1791.962402,708.936829 1791.972534,711.637939 
	C1792.038452,729.118652 1791.755371,746.605530 1792.156982,764.077271 
	C1792.279297,769.398438 1789.384644,768.377502 1786.337891,768.552490 
	C1782.870850,768.751648 1780.459351,768.789001 1780.695679,763.859253 
	C1781.149292,754.391357 1780.286255,744.848694 1780.941528,735.404480 
	C1782.254150,716.486877 1778.753784,698.518188 1772.639404,680.719727 
	C1767.415161,665.513184 1763.191284,649.962952 1758.536621,634.561218 
	C1758.308960,633.807617 1758.193970,633.019897 1758.036743,632.294800 
	C1758.386353,632.128601 1758.532593,632.005615 1758.687622,631.992981 
	C1768.976562,631.153442 1768.973511,631.155212 1771.751831,640.873657 
	C1776.608398,657.862488 1781.469360,674.850159 1787.292114,691.913818 
	C1788.848755,686.587097 1790.432495,681.268066 1791.956665,675.932068 
	C1795.830933,662.369141 1799.666870,648.795166 1803.546387,635.233765 
	C1804.333252,632.483093 1811.916992,630.035645 1813.640381,632.156250 
	C1815.204224,634.080383 1812.819702,636.106262 1812.701904,638.576782 
z"/>
<path fill="#050505" opacity="1.000000" stroke="none" 
	d="
M2035.157227,755.220581 
	C2043.626831,744.500732 2042.635864,732.932068 2039.081177,721.302246 
	C2036.531128,712.959717 2031.346436,705.901306 2026.551270,698.718018 
	C2020.622559,689.837097 2014.952393,680.843445 2013.490479,669.958557 
	C2012.324707,661.277161 2012.547241,652.692017 2016.022583,644.472290 
	C2020.123901,634.771667 2027.738892,629.660828 2037.674438,629.823730 
	C2045.303833,629.948730 2046.873413,631.529053 2046.843750,639.052490 
	C2046.839111,640.212769 2046.842896,641.373108 2046.842896,642.433838 
	C2045.559082,643.185730 2044.835083,642.173096 2043.980347,641.856812 
	C2036.020386,638.910828 2028.753174,641.978455 2025.906128,650.089539 
	C2022.193115,660.668457 2023.436401,671.062683 2028.371704,681.020569 
	C2032.521240,689.393005 2038.390747,696.690369 2043.375977,704.542480 
	C2052.296875,718.593445 2055.510498,733.591553 2050.979248,749.792175 
	C2047.128784,763.559387 2037.392456,770.567444 2023.397583,770.171509 
	C2015.378662,769.944641 2014.430298,768.953430 2014.483521,760.865051 
	C2014.490967,759.733093 2014.484497,758.601013 2014.484497,757.046936 
	C2021.843018,760.323120 2028.598389,760.231201 2035.157227,755.220581 
z"/>
<path fill="#010101" opacity="1.000000" stroke="none" 
	d="
M1324.999756,635.044189 
	C1324.999878,636.523010 1324.867676,637.543213 1325.023804,638.517212 
	C1325.581787,641.998718 1324.249268,643.082642 1320.710938,642.934082 
	C1316.625000,642.762451 1311.223267,641.064026 1308.739502,643.598022 
	C1306.255981,646.131836 1308.045654,651.502686 1308.032593,655.622498 
	C1307.963257,677.600647 1308.084839,699.579834 1307.913940,721.556885 
	C1307.886475,725.089172 1308.828613,726.312195 1312.326050,725.885315 
	C1314.622803,725.604919 1317.032593,726.141907 1319.302124,725.768188 
	C1323.986816,724.996826 1324.892090,727.115479 1324.594360,731.260010 
	C1324.412720,733.789246 1323.508789,734.284546 1321.298462,734.199097 
	C1317.807129,734.064026 1314.301514,734.280334 1310.812134,734.122009 
	C1308.619629,734.022522 1307.920044,734.781128 1307.960205,736.951660 
	C1308.074341,743.110168 1308.110229,749.275085 1307.946289,755.431274 
	C1307.881348,757.872375 1309.017456,758.097168 1310.942139,758.028259 
	C1313.935425,757.921082 1316.935181,758.000000 1319.932251,758.000183 
	C1326.655518,758.000549 1327.850098,759.641113 1326.529907,766.477417 
	C1326.177246,768.302979 1325.214600,768.493958 1323.783936,768.492188 
	C1315.625244,768.481934 1307.466187,768.438232 1299.308350,768.522461 
	C1297.283325,768.543335 1296.650269,767.710876 1296.829346,765.862793 
	C1296.893188,765.203003 1296.837280,764.531738 1296.837280,763.865723 
	C1296.836914,721.407471 1296.876587,678.949097 1296.762207,636.491150 
	C1296.752808,633.017151 1297.209106,631.488708 1301.235718,631.723816 
	C1308.039185,632.120972 1314.883057,631.874207 1321.709106,631.807373 
	C1323.717529,631.787720 1325.476196,631.758728 1324.999756,635.044189 
z"/>
<path fill="#050505" opacity="1.000000" stroke="none" 
	d="
M2103.481934,714.685913 
	C2102.759766,693.381714 2102.777832,672.601501 2107.926025,652.194397 
	C2109.236572,646.999695 2111.231934,642.085693 2114.440430,637.744873 
	C2119.549561,630.832764 2126.856934,628.200012 2135.172363,630.222839 
	C2138.183350,630.955261 2140.377197,632.226990 2139.896973,635.979248 
	C2139.611084,638.211243 2139.844727,640.509766 2139.844727,643.203430 
	C2138.444336,642.628235 2137.562012,642.236572 2136.659424,641.899597 
	C2129.436279,639.202454 2124.389893,641.131653 2121.006836,648.091675 
	C2117.152832,656.020813 2115.990234,664.649353 2115.385498,673.267700 
	C2113.847168,695.208130 2113.491211,717.151855 2116.990479,738.982971 
	C2117.703857,743.434021 2118.909912,747.756409 2120.863525,751.821045 
	C2124.342529,759.058472 2129.365234,761.014648 2136.812256,758.162720 
	C2137.713379,757.817566 2138.606445,757.451660 2139.594482,757.059143 
	C2139.597900,761.018677 2141.578369,765.661316 2138.560303,768.110413 
	C2134.367920,771.512207 2128.739014,770.777771 2123.689697,769.324402 
	C2117.439697,767.525452 2113.929199,762.593994 2111.275391,757.085083 
	C2106.344727,746.850037 2105.181396,735.724426 2104.037354,724.625305 
	C2103.713379,721.484314 2103.660889,718.315430 2103.481934,714.685913 
z"/>
<path fill="#040404" opacity="1.000000" stroke="none" 
	d="
M738.655090,755.331909 
	C743.664185,761.286133 749.162537,759.505066 755.472900,756.936401 
	C755.472900,760.185669 755.615967,763.241455 755.431458,766.277344 
	C755.257324,769.143372 752.641663,769.363281 750.653564,769.803284 
	C741.375488,771.856812 733.974670,768.650635 728.865479,760.495972 
	C723.129822,751.341431 721.317871,740.942383 720.334534,730.530212 
	C718.074951,706.604736 717.814636,682.660645 721.999817,658.858032 
	C723.128723,652.437866 725.028076,646.244812 728.241455,640.543823 
	C732.678650,632.671692 739.248901,628.826477 748.492920,629.931335 
	C754.606506,630.662048 755.508118,631.501160 755.511841,637.632446 
	C755.512878,639.287598 755.511963,640.942810 755.511963,642.534485 
	C754.988708,642.699951 754.617432,642.960327 754.396973,642.866516 
	C744.629456,638.708313 739.547119,640.738281 735.635742,650.589966 
	C731.513428,660.972839 730.943848,671.981873 730.443665,682.940247 
	C729.562195,702.253113 729.473694,721.556763 733.006165,740.679504 
	C733.946838,745.771973 735.494751,750.673462 738.655090,755.331909 
z"/>
<path fill="#060606" opacity="1.000000" stroke="none" 
	d="
M2072.153076,731.999878 
	C2072.153320,699.845825 2072.320068,668.190125 2071.995605,636.539368 
	C2071.938721,631.004883 2074.814697,631.961243 2078.077881,631.764099 
	C2081.675293,631.546692 2083.672363,631.767212 2083.647461,636.548279 
	C2083.427979,679.030151 2083.417725,721.514221 2083.652100,763.995972 
	C2083.680420,769.160645 2081.030029,768.559998 2077.822266,768.548157 
	C2074.631592,768.536438 2071.771729,769.213074 2072.010986,763.980835 
	C2072.489990,753.506958 2072.153320,742.995728 2072.153076,731.999878 
z"/>
<path fill="#000000" opacity="1.000000" stroke="none" 
	d="
M1102.838013,646.003601 
	C1102.837891,642.172241 1103.087280,638.815735 1102.767334,635.514343 
	C1102.447998,632.219055 1103.809937,631.414429 1106.718750,631.808777 
	C1107.864136,631.964050 1109.070679,631.981567 1110.209961,631.806091 
	C1113.264038,631.335876 1114.120361,632.447571 1114.079590,635.576477 
	C1113.894897,649.736694 1113.998901,663.900635 1113.998901,678.063232 
	C1113.998901,706.721680 1113.842407,735.381775 1114.142700,764.037048 
	C1114.196777,769.201660 1111.549194,768.484131 1108.416382,768.523926 
	C1105.179199,768.564941 1102.669312,769.044556 1102.701416,763.968018 
	C1102.949585,724.814148 1102.838013,685.658020 1102.838013,646.003601 
z"/>
<path fill="#030303" opacity="1.000000" stroke="none" 
	d="
M271.966888,504.305115 
	C275.648804,496.861633 281.092987,493.303040 287.783508,494.065979 
	C294.250702,494.803497 298.887421,498.175507 301.070984,504.490112 
	C303.202484,510.654114 301.511353,516.937073 296.630493,521.208496 
	C291.472809,525.722168 283.868286,526.274170 278.111053,522.552795 
	C272.220306,518.745178 269.880707,512.044434 271.966888,504.305115 
z"/>
<path fill="#070707" opacity="1.000000" stroke="none" 
	d="
M1047.854736,615.909058 
	C1041.084106,613.941650 1035.869507,616.070679 1031.352417,620.948425 
	C1030.368774,610.217407 1035.380615,605.385193 1045.595337,606.629395 
	C1049.799316,607.141541 1053.451904,609.080322 1057.261841,610.714417 
	C1064.674316,613.893738 1071.982422,615.023499 1078.208252,608.043396 
	C1081.872925,619.071045 1074.572144,621.762573 1066.059937,621.909485 
	C1061.669434,621.985229 1057.742920,619.897522 1053.819702,618.075256 
	C1052.026855,617.242493 1050.113037,616.670166 1047.854736,615.909058 
z"/>
<path fill="#070707" opacity="1.000000" stroke="none" 
	d="
M1976.600708,601.439209 
	C1980.395752,595.698425 1985.514038,599.782410 1990.274048,599.320496 
	C1983.947144,608.174500 1977.904419,617.254150 1971.148438,625.767822 
	C1968.569092,629.018127 1963.926880,626.247314 1958.859985,627.430664 
	C1965.163940,618.187805 1970.771851,609.965271 1976.600708,601.439209 
z"/>
<path fill="#FFF8F8" opacity="1.000000" stroke="none" 
	d="
M1617.648804,393.273529 
	C1612.225464,382.460693 1608.357666,371.661774 1607.784912,359.702667 
	C1607.206177,347.619049 1609.409546,336.127899 1614.398804,325.358734 
	C1626.143799,300.006989 1639.754395,275.587097 1652.620117,250.795990 
	C1653.782349,248.556305 1653.652588,244.697800 1656.769775,244.518234 
	C1659.943726,244.335403 1659.979370,248.290588 1661.417358,250.344254 
	C1668.942017,261.089844 1676.142334,272.062378 1683.665527,282.808990 
	C1685.838745,285.913055 1686.160156,287.573273 1682.816895,290.470764 
	C1665.418213,305.549561 1652.814087,323.568787 1648.900513,346.952026 
	C1644.662109,372.276550 1656.967041,394.723358 1680.670166,404.369110 
	C1695.662109,410.469910 1711.452637,410.965576 1727.235229,411.763336 
	C1728.358154,411.820099 1729.893555,411.845093 1730.030029,410.376221 
	C1730.174927,408.817749 1728.496948,408.866455 1727.474609,408.539642 
	C1720.045654,406.165039 1712.258667,404.938690 1705.257812,401.184601 
	C1700.459961,398.611694 1696.207275,395.513062 1693.487549,390.720764 
	C1685.323853,376.336273 1680.728027,361.434540 1686.979614,344.963684 
	C1690.718628,335.112366 1697.576416,327.818726 1705.799438,321.622925 
	C1708.026123,319.945038 1709.394897,321.344574 1710.655396,323.191223 
	C1718.140381,334.156219 1725.694580,345.073914 1733.171509,356.044373 
	C1742.621948,369.910370 1752.012329,383.817169 1761.445190,397.695068 
	C1765.357544,403.451019 1769.207397,409.254425 1773.295898,414.883698 
	C1775.216553,417.528320 1774.420166,419.000214 1771.989624,420.480316 
	C1756.299194,430.035309 1739.488647,436.406769 1721.213989,438.892426 
	C1703.277588,441.332123 1685.643188,440.660950 1668.534790,434.252472 
	C1647.202637,426.261688 1629.779297,413.326874 1617.648804,393.273529 
z"/>
<path fill="#FFF9F9" opacity="1.000000" stroke="none" 
	d="
M1606.170166,132.738098 
	C1599.442139,107.508980 1601.490601,83.863518 1616.203857,62.171700 
	C1620.714844,55.521252 1626.580566,50.096592 1633.835205,46.338402 
	C1639.463867,43.422539 1644.296143,44.034752 1648.799805,48.420650 
	C1658.116577,57.493908 1661.858521,69.291046 1663.322876,81.555618 
	C1666.959961,112.017014 1661.739990,140.794113 1644.934692,166.992767 
	C1641.977783,171.602448 1639.421875,176.470444 1636.707153,181.234131 
	C1635.299072,183.705063 1633.808105,185.103195 1631.624878,181.942520 
	C1621.121826,166.737259 1611.141846,151.261597 1606.170166,132.738098 
z"/>
<path fill="#FFF7F7" opacity="1.000000" stroke="none" 
	d="
M1803.041016,343.105652 
	C1809.701538,366.307404 1807.048828,387.173981 1790.423096,405.274811 
	C1787.661011,408.281952 1786.292969,407.990265 1784.105957,404.763458 
	C1771.083374,385.548065 1757.878296,366.456512 1744.770874,347.298401 
	C1738.025269,337.438782 1731.465698,327.449677 1724.589600,317.682831 
	C1722.279907,314.402405 1723.198486,312.847046 1726.564209,312.040710 
	C1747.923584,306.923431 1768.581055,307.447479 1787.164429,320.827820 
	C1794.728271,326.274017 1799.747803,333.934326 1803.041016,343.105652 
z"/>
<path fill="#FEFEFE" opacity="1.000000" stroke="none" 
	d="
M2598.000000,334.833984 
	C2577.841064,334.833710 2558.181641,334.798828 2538.523193,334.873840 
	C2535.845947,334.884064 2534.727051,334.707275 2535.476562,331.371521 
	C2549.442139,269.203766 2583.711670,221.672333 2638.058838,188.536118 
	C2638.448730,188.298416 2638.916504,188.188080 2640.000488,187.761490 
	C2640.000488,189.500397 2640.000488,190.901276 2640.000488,192.302155 
	C2640.000488,238.117645 2639.942383,283.933350 2640.100098,329.748291 
	C2640.114258,333.846954 2639.223633,335.058289 2634.982910,334.946411 
	C2622.829346,334.625702 2610.661865,334.833771 2598.000000,334.833984 
z"/>
<path fill="#FFFFFF" opacity="1.000000" stroke="none" 
	d="
M643.169617,245.903458 
	C678.627197,328.313416 622.908142,415.550537 541.632629,427.573730 
	C496.306305,434.278900 457.548065,419.438202 426.289032,386.146851 
	C402.114197,360.400269 390.111603,329.439819 391.272339,294.030670 
	C392.585449,253.974182 409.706879,221.324539 440.377197,195.939835 
	C465.715240,174.968430 495.177032,164.864212 528.093567,166.264725 
	C562.886353,167.745071 592.333679,181.705826 616.634338,206.514664 
	C627.783875,217.897369 636.661987,230.892593 643.169617,245.903458 
z"/>
<path fill="#FEFEFE" opacity="1.000000" stroke="none" 
	d="
M953.000000,334.832520 
	C945.183899,334.832520 937.867737,334.832520 930.511292,334.832520 
	C940.076904,274.486420 983.970825,215.126022 1035.163574,188.029907 
	C1035.163574,189.688965 1035.163452,191.123108 1035.163452,192.557251 
	C1035.163452,238.347885 1035.120605,284.138641 1035.242798,329.928955 
	C1035.252808,333.680237 1034.526245,334.972931 1030.427368,334.939178 
	C1004.786316,334.728180 979.142761,334.832550 953.000000,334.832520 
z"/>
<path fill="#FDFDFD" opacity="1.000000" stroke="none" 
	d="
M1366.835083,253.000092 
	C1366.834839,278.976044 1366.754761,304.452545 1366.919922,329.927429 
	C1366.944702,333.750061 1366.109131,334.960266 1362.046265,334.936646 
	C1330.410522,334.752472 1298.772461,334.727631 1267.137085,334.944977 
	C1262.116089,334.979523 1261.660278,333.834686 1262.749878,329.145294 
	C1276.700073,269.106506 1309.998291,222.983917 1362.031982,190.220871 
	C1363.352539,189.389435 1364.570068,188.092651 1366.835083,188.207077 
	C1366.835083,209.683975 1366.835083,231.092026 1366.835083,253.000092 
z"/>
<path fill="#010101" opacity="1.000000" stroke="none" 
	d="
M214.578064,638.245605 
	C208.858078,627.932129 202.413620,618.534485 195.351974,609.570251 
	C192.920563,606.483765 191.571411,602.918518 190.314850,599.365417 
	C188.022156,592.882446 182.349579,588.827332 179.164093,583.053650 
	C171.737839,569.593445 164.308716,556.137146 156.207443,543.066223 
	C155.246109,541.515137 154.325287,539.862793 153.049210,538.596497 
	C147.867569,533.454346 144.088104,527.448914 142.457260,520.370300 
	C141.003036,514.058167 137.077591,509.493622 132.995178,504.910828 
	C127.842407,499.126465 125.001740,491.908356 121.484200,485.210541 
	C117.164589,476.985474 112.145737,469.170471 107.964157,460.892487 
	C105.200500,455.421478 102.624626,449.847504 100.174423,444.228210 
	C96.581512,435.988190 90.427238,429.379974 86.193924,421.483490 
	C75.239731,401.050354 63.576511,380.942688 53.960564,359.872131 
	C43.702290,337.394073 31.359478,315.928040 22.088934,292.998962 
	C20.100527,288.080994 18.265726,283.100677 16.259438,278.190247 
	C15.294132,275.827637 15.516485,273.420288 17.819778,272.619934 
	C29.058578,268.714478 35.771114,259.203949 44.097076,251.742249 
	C48.220310,248.047012 52.675816,244.949280 57.269352,241.953293 
	C63.420582,237.941360 67.600342,231.772537 73.298615,227.200302 
	C76.776627,224.409607 75.969543,220.849197 72.262779,217.451584 
	C57.371391,203.802109 40.969063,192.197388 23.871805,181.522354 
	C22.743790,180.818069 21.733868,179.924026 20.603071,179.224915 
	C17.156471,177.094025 17.686972,175.162476 20.435368,172.658966 
	C29.489185,164.411804 38.106792,155.666428 47.404354,147.711304 
	C58.084049,138.573608 68.731850,129.342346 80.856987,122.017067 
	C85.375565,119.287224 89.334312,115.647842 93.686272,112.621574 
	C103.218567,105.993004 112.823982,99.469055 122.430237,92.947609 
	C126.824638,89.964355 127.375618,90.349281 129.280502,95.423485 
	C133.602234,106.935669 132.533401,119.389633 135.455215,131.003387 
	C139.069717,145.370361 139.136307,160.248093 143.406342,174.512482 
	C147.205200,187.202911 147.550476,200.758881 151.482346,213.491959 
	C155.217484,225.587891 156.709610,238.128540 159.271362,250.455902 
	C163.221527,269.464203 166.783096,288.585938 172.307404,307.202759 
	C176.897568,322.671539 180.143280,338.428070 183.017929,354.221954 
	C184.957184,364.876617 188.195267,374.952057 191.216095,385.245544 
	C193.877762,394.315216 197.036575,403.444611 198.731094,412.920410 
	C199.973145,419.865997 203.268112,426.418701 204.984650,433.311707 
	C207.181335,442.132721 210.592514,450.566254 212.483368,459.510681 
	C213.870438,466.072021 217.220703,472.196136 219.375229,478.622650 
	C222.651215,488.394196 225.614182,498.270233 228.775742,508.080719 
	C231.669891,517.061523 234.352463,526.126160 237.659088,534.955078 
	C243.630798,550.899902 249.547394,566.844910 254.235153,583.233459 
	C257.111084,593.287903 262.260986,602.572449 265.279144,612.514099 
	C269.568573,626.643433 275.259430,640.258545 279.655731,654.356689 
	C282.810425,664.473206 286.254456,674.683899 291.054657,684.366211 
	C296.779907,695.914490 299.443573,708.749573 304.372559,720.628296 
	C308.408661,730.355164 310.256073,740.696777 314.154297,750.362732 
	C316.677795,756.620117 320.192566,762.499756 323.525482,768.400452 
	C325.459991,771.825317 326.279327,775.511414 327.098389,779.241821 
	C327.304810,780.181946 327.555908,781.348572 326.453979,781.901001 
	C325.326385,782.466309 324.579376,781.459900 323.930054,780.788879 
	C310.414673,766.822021 297.933624,752.007690 285.841431,736.766479 
	C279.207153,728.404541 274.916840,718.076050 265.731995,711.704956 
	C263.219482,709.962097 262.436493,706.733643 261.214630,704.037048 
	C256.934265,694.590332 250.514282,686.797607 243.967743,678.805969 
	C233.482742,666.006592 224.436157,652.028870 214.578064,638.245605 
z"/>
<path fill="#FDFDFD" opacity="1.000000" stroke="none" 
	d="
M1674.526367,707.996155 
	C1674.526367,687.370117 1674.639282,667.242737 1674.442017,647.118347 
	C1674.396484,642.480835 1675.781860,642.476501 1679.140259,644.453369 
	C1684.259644,647.466858 1687.621094,651.980896 1689.708496,657.291687 
	C1695.481689,671.980591 1696.338867,687.062500 1691.683960,702.175232 
	C1688.930664,711.114441 1683.100342,717.997314 1674.526367,724.079407 
	C1674.526367,718.256592 1674.526367,713.376221 1674.526367,707.996155 
z"/>
<path fill="#FDFDFD" opacity="1.000000" stroke="none" 
	d="
M796.613525,756.714294 
	C791.704834,760.762146 788.268127,760.010925 785.446655,754.305542 
	C781.997375,747.330688 780.965454,739.674377 780.332336,732.082092 
	C778.281433,707.489380 778.029663,682.903137 782.015808,658.435669 
	C782.711853,654.163269 783.739441,649.958557 785.773865,646.096863 
	C787.109253,643.562134 788.676208,640.959534 791.992371,641.098267 
	C795.005676,641.224243 796.553223,643.663208 797.768188,646.050293 
	C800.993164,652.386353 802.103821,659.350098 802.770935,666.270935 
	C805.170776,691.169312 805.610840,716.083313 801.968933,740.924805 
	C801.172668,746.355957 799.897705,751.695068 796.613525,756.714294 
z"/>
<path fill="#FDFDFD" opacity="1.000000" stroke="none" 
	d="
M1618.672485,641.442200 
	C1623.531494,640.382385 1625.290894,643.640198 1626.742920,646.814148 
	C1630.112427,654.179321 1631.132568,662.165039 1631.795288,670.100952 
	C1633.695679,692.862122 1634.021606,715.637085 1630.985962,738.347900 
	C1630.214722,744.116882 1629.197388,749.879822 1626.269165,755.033691 
	C1622.907593,760.950317 1617.796875,760.988892 1614.472900,755.091919 
	C1611.136597,749.172974 1610.020874,742.516357 1609.387817,735.932983 
	C1606.833252,709.362671 1606.311157,682.785461 1611.088867,656.374451 
	C1612.080200,650.894470 1613.098999,645.145508 1618.672485,641.442200 
z"/>
<path fill="#FDFDFD" opacity="1.000000" stroke="none" 
	d="
M1245.845459,661.001221 
	C1245.845459,654.750977 1245.845459,649.000427 1245.845459,642.764343 
	C1252.238525,645.406250 1255.475952,650.135986 1257.867188,655.481262 
	C1265.260864,672.009033 1266.262207,689.582214 1265.587646,707.285522 
	C1265.131470,719.255493 1263.743896,731.175659 1258.940552,742.368591 
	C1256.305786,748.507874 1253.125732,754.228943 1245.845459,757.271057 
	C1245.845459,724.983215 1245.845459,693.242004 1245.845459,661.001221 
z"/>
<path fill="#FCFCFC" opacity="1.000000" stroke="none" 
	d="
M927.999695,690.000000 
	C927.999695,674.068787 927.999695,658.637573 927.999695,642.843445 
	C934.961121,644.452393 938.935974,649.011902 941.756592,654.577820 
	C947.649841,666.206543 948.755676,678.680725 947.454773,691.456970 
	C946.179260,703.983154 940.561890,714.188599 930.725525,722.045593 
	C929.861877,722.735352 928.792969,723.168335 927.999695,723.618408 
	C927.999695,713.189758 927.999695,701.844910 927.999695,690.000000 
z"/>
<path fill="#F5F5F5" opacity="1.000000" stroke="none" 
	d="
M1158.800171,686.294739 
	C1160.837280,698.174438 1162.716064,709.657471 1164.809570,721.101257 
	C1165.447632,724.589600 1165.088135,726.409851 1160.863281,725.916748 
	C1157.092163,725.476746 1151.860107,727.083069 1149.818115,725.128052 
	C1147.601685,723.005798 1150.305420,718.063721 1150.919800,714.368774 
	C1152.794312,703.093445 1154.804810,691.840698 1157.578857,680.584045 
	C1157.960693,682.350342 1158.342529,684.116699 1158.800171,686.294739 
z"/>
<path fill="#F5F5F5" opacity="1.000000" stroke="none" 
	d="
M2175.706055,695.589722 
	C2176.614258,690.249207 2177.438721,685.335632 2178.374756,679.756226 
	C2180.476074,684.312134 2180.527344,688.654785 2181.272705,692.824097 
	C2183.056641,702.802185 2184.645996,712.816040 2186.533691,722.773804 
	C2187.021729,725.349976 2186.352539,725.793030 2183.928711,725.906860 
	C2170.044189,726.558655 2170.068848,726.625427 2172.681885,712.710938 
	C2173.724121,707.157837 2174.645752,701.582092 2175.706055,695.589722 
z"/>
<path fill="#F5F5F5" opacity="1.000000" stroke="none" 
	d="
M989.092712,725.847900 
	C981.999817,725.846985 981.936462,725.836243 983.011230,719.489929 
	C985.036011,707.534180 987.130249,695.590088 989.232727,683.647705 
	C989.426208,682.548889 989.886658,681.497192 990.566589,679.327515 
	C993.160278,694.305176 995.497009,708.152771 997.998169,721.970581 
	C998.559509,725.071594 997.812866,726.317261 994.555969,725.885437 
	C992.920654,725.668518 991.232788,725.847778 989.092712,725.847900 
z"/>
</svg>